<svg enable-background="new 0 0 340 63" viewBox="0 0 340 63" xmlns="http://www.w3.org/2000/svg"><g fill="#fff"><path d="m139.6 34.3c-2.1 1.6-4.3 3.1-6.6 4.6-2.2 1.4-4.2 2.5-6 3.1s-2.9.5-3.6-.3c-.6-1-.6-2.6-.1-4.6s1.3-4.1 2.2-6.3c1-2 1.8-4 2.5-6s1-4.1 1-6.2-.7-4.2-1.9-6.2c-1.1-1.7-2.7-3-4.9-3.8s-4.6-1.3-7.3-1.2c-2.7 0-5.3.5-7.9 1.5-2 .8-3.9 1.9-5.6 3.5s-3 3.6-4 5.9c-.3.9-.6 2-.7 3.4s-.2 2.6-.2 3.8 0 1.7 0 1.8c-1.1.8-2.3 1.7-3.7 2.8s-2.8 2.4-4.1 3.9c-1.4 1.7-2.6 3.3-3.6 5-1 1.6-1.6 2.9-1.8 3.8-.1.4 0 1.3.3 3 .3 1.6 1.2 3.5 2.5 5.6s3.6 4.1 6.6 5.9c0 0 .1 0 .2-.2.1-.1.2-.2.2-.2-.1 0-.4-.4-1.1-1.2s-1.3-1.8-1.9-3-.9-2.5-.8-3.8c.1-1.8 1.3-3.5 3.5-5s6-2.9 11.4-4c1.5-.4 2.8-1 4-1.8 1.1-.8 1.7-1.2 1.8-1.3-.4 4.3.3 8.2 2.3 11.7 1.6 3 3.8 5.6 6.4 8l24.9-24.9v-.1c-1.1.6-2.5 1.6-4 2.8zm-32.6-13.8c-.4 1-.8 2.1-1.2 3.1s-.6 1.6-.6 1.8c.1.1.3.4.7.9.4.4.6.7.7.9 0 .2-.1.9-.4 1.8s-.9 1.6-1.9 2.1c-1.2.5-2.3.5-3.4.3-1.1-.3-1.9-.6-2.5-1s-1-.7-1-.7l10.2-11.1v.4c0-.1-.2.4-.6 1.5z"/><path d="m335 16.1c3 0 5.3 2.3 5.3 5.2s-2.3 5.2-5.3 5.2-5.4-2.3-5.4-5.2 2.4-5.2 5.4-5.2zm-.1 1c-2.3 0-4 1.9-4 4.1 0 2.3 1.7 4.1 4.1 4.1 2.3 0 4-1.8 4-4.1-.1-2.2-1.7-4.1-4.1-4.1zm-.8 6.8h-1.2v-5.1c.5-.1 1.1-.2 2-.2 1 0 1.4.2 1.8.4.3.2.5.6.5 1.1 0 .6-.4 1-1.1 1.2v.1c.5.2.8.6 1 1.3.2.8.2 1.1.4 1.3h-1.3c-.2-.2-.2-.6-.4-1.2-.1-.6-.4-.8-1.1-.8h-.6zm0-2.9h.6c.7 0 1.2-.2 1.2-.8 0-.5-.4-.8-1.1-.8-.3 0-.5 0-.7.1z"/><path d="m .3 13.3h29.1v8.8h-8v23.8h-13v-23.8h-8.1z"/><path d="m54.8 45.9h-11v-13.8c0-.9-.2-1.6-.5-2s-.8-.6-1.5-.6-1.1.2-1.5.6-.5 1.2-.5 2.4v13.5h-11.1v-32.7h11.1v13c .8-1.3 1.7-2.2 2.8-2.8s2.5-.9 4.2-.9c1.2 0 2.2.1 3.1.4s1.6.6 2.2 1.1 1.1 1 1.5 1.6.7 1.4.9 2.5c.2.9.3 2.2.3 4z"/><path d="m82.1 36.5h-15.7v.8c0 1.5.2 2.5.7 3s1.2.8 2.3.8c.8 0 1.5-.2 2-.7s.8-1.1.9-2h9.6c0 1-.4 2.1-1.1 3.3s-1.6 2.1-2.6 2.8-2.2 1.2-3.7 1.6-3.3.6-5.4.6c-1.9 0-3.5-.2-4.9-.5s-2.7-.9-3.7-1.7c-1.1-.8-2-1.8-2.8-3-.6-.9-1-1.9-1.3-3.1s-.5-2.5-.5-3.8c0-2.3.3-4.2 1-5.8.5-1.2 1.4-2.3 2.5-3.3 1.2-1 2.5-1.8 3.8-2.2 1.8-.6 3.9-.9 6.2-.9s4.3.3 5.8.9c1.6.6 2.9 1.5 4.1 2.8.9 1 1.6 2.2 2.1 3.6s.7 3.2.7 5.1zm-9.9-4.8c0-1.3-.2-2.1-.4-2.6-.5-.8-1.3-1.1-2.4-1.1s-1.9.4-2.4 1.1c-.4.5-.6 1.4-.6 2.6z"/><path d="m141.2 13.2h19.5c4.1 0 7 .7 8.6 2.2 1.7 1.4 2.5 3.5 2.5 6.1 0 1.1-.2 2.1-.5 3s-.7 1.7-1.3 2.3-1.2 1.1-2 1.5c-.6.3-1.5.7-2.7 1.1 1.3.2 2.3.5 3 .8s1.2.8 1.6 1.3.7 1.2.9 2.2c.2.9.5 2.7.8 5.3.4 3.2.9 5.5 1.4 7.1h-12.7c-.2-.5-.3-1-.4-1.5s-.2-1.3-.4-2.6l-.6-4.4c-.2-1.1-.4-1.8-.6-2.2s-.5-.7-.9-.8-1.1-.2-2-.2h-1.4v11.6h-12.8zm12.7 13.7h1c .9 0 1.7-.1 2.4-.3s1.2-.6 1.6-1.1.5-1.2.5-2c0-1-.3-1.7-.9-2.2s-1.8-.7-3.6-.7h-1z"/><path d="m198.5 36.5h-15.7v.8c0 1.5.2 2.5.7 3s1.2.8 2.3.8c.8 0 1.5-.2 2-.7s.8-1.1.9-2h9.6c0 1-.4 2.1-1.1 3.3s-1.6 2.1-2.6 2.8-2.2 1.2-3.7 1.6-3.3.6-5.4.6c-1.9 0-3.5-.2-4.9-.5s-2.6-.9-3.7-1.7-2-1.8-2.8-3c-.6-.9-1-1.9-1.3-3.1s-.5-2.5-.5-3.8c0-2.3.4-4.2 1-5.8.5-1.2 1.4-2.3 2.5-3.3 1.2-1 2.4-1.8 3.8-2.2 1.8-.6 3.9-.9 6.2-.9s4.3.3 5.8.9c1.6.6 2.9 1.5 4.1 2.8.9 1 1.6 2.2 2.1 3.6s.7 3.2.7 5.1c.1.6 0 1.2 0 1.7zm-9.8-4.8c0-1.3-.1-2.1-.4-2.6-.5-.8-1.3-1.1-2.4-1.1s-1.9.4-2.4 1.1c-.4.5-.6 1.4-.6 2.6z"/><path d="m215.8 25.7.4-2.4h10.3v19.7c0 2.1-.1 3.6-.3 4.5-.3 1.3-.8 2.5-1.4 3.4-.7.9-1.6 1.7-2.7 2.4s-2.6 1.1-4.2 1.5-3.4.5-5.3.5c-4.4 0-7.5-.7-9.3-2.1s-2.8-3.3-2.9-5.7h10.6c0 .6.2 1 .6 1.3s.9.5 1.7.5c1.1 0 1.9-.4 2.3-1.1.3-.6.5-1.6.5-3.2v-2.3c-.6.9-1.5 1.6-2.7 2.2-1.2.5-2.6.8-4.2.8-3.4 0-5.9-1.2-7.8-3.5-1.5-1.9-2.2-4.3-2.2-7.4 0-3.9.9-6.8 2.8-8.9s4.2-3.1 7.1-3.1c1.7 0 3.1.3 4.1.8 1 .4 1.9 1.2 2.6 2.1zm-2.9 13.7c.7 0 1.2-.2 1.6-.5s.7-.8.8-1.4.2-1.8.2-3.4c0-1.5-.1-2.5-.2-3.1-.2-.6-.4-1-.8-1.4-.4-.3-.8-.4-1.4-.4s-1.1.1-1.5.5-.7.7-.9 1.3c-.2.7-.3 2.1-.3 4 0 1.3.1 2.3.2 2.8s.4 1 .8 1.3c.5.2.9.3 1.5.3z"/><path d="m228.2 20.3v-6.9h10.8v6.9zm0 3h10.8v22.6h-10.8z"/><path d="m240 38.6h10c0 1.1.2 1.9.6 2.4s1 .7 1.8.7 1.4-.2 1.8-.5.6-.8.6-1.5c0-.6-.2-1-.5-1.3-.4-.3-1.3-.6-2.8-.8l-4-.7c-1.7-.3-3.1-.7-4-1.2-.6-.3-1.1-.7-1.6-1.3s-.9-1.1-1.1-1.8-.4-1.4-.4-2.3c0-1.9.5-3.4 1.5-4.5s2.3-2 4-2.6c1.6-.6 3.8-.8 6.4-.8 1.9 0 3.6.2 5.3.5 1.6.3 3 .9 4 1.7s1.8 1.7 2.2 2.8c.2.6.4 1.5.4 2.7h-9.4c0-1-.2-1.6-.5-2-.4-.4-.9-.6-1.7-.6s-1.4.1-1.8.5-.5.7-.5 1.3c0 .4.1.7.2 1s .4.4.7.5 1 .3 2 .4l3.7.6c2.2.3 3.9.8 4.9 1.4 1.1.5 1.9 1.3 2.4 2.3s.8 2.1.8 3.4c0 1.6-.4 3.1-1.2 4.2s-2.1 2.1-3.8 2.8-4.2 1.1-7.5 1.1c-1.8 0-3.3-.1-4.7-.3s-2.6-.6-3.5-1-1.7-1-2.3-1.7-1.1-1.4-1.3-2.2c-.5-1-.7-2-.7-3.2z"/><path d="m267.4 19.5 10.8-3.8v7.5h5.1v6.8h-5.1v6.7c0 1.1.1 1.8.5 2.1.3.4.8.5 1.4.5.8 0 1.8-.1 2.9-.4v6.7c-3.1.6-5.5.9-7.2.9-1.5 0-2.8-.2-4-.6s-2.1-.9-2.8-1.7c-.5-.6-.9-1.3-1.2-2.2-.2-.7-.3-1.6-.3-2.8v-9.2h-3v-6.7h3z"/><path d="m309.2 36.5h-15.7v.8c0 1.5.2 2.5.7 3s1.2.8 2.3.8c.8 0 1.5-.2 2-.7s.8-1.1.9-2h9.5c0 1-.4 2.1-1.1 3.3s-1.6 2.1-2.6 2.8-2.2 1.2-3.7 1.6-3.3.6-5.4.6c-1.9 0-3.5-.2-4.9-.5s-2.6-.9-3.7-1.7-2-1.8-2.8-3c-.6-.9-1-1.9-1.3-3.1s-.5-2.5-.5-3.8c0-2.3.4-4.2 1-5.8.5-1.2 1.4-2.3 2.5-3.3 1.2-1 2.5-1.8 3.8-2.2 1.8-.6 3.9-.9 6.2-.9s4.3.3 5.8.9c1.6.6 2.9 1.5 4.1 2.8.9 1 1.6 2.2 2 3.6s.7 3.2.7 5.1c.3.6.2 1.2.2 1.7zm-9.8-4.8c0-1.3-.1-2.1-.4-2.6-.5-.8-1.3-1.1-2.4-1.1s-1.9.4-2.4 1.1c-.4.5-.5 1.4-.5 2.6z"/><path d="m310.4 23h10.5l.3 2.7c1-1.1 1.9-1.8 2.6-2.2.8-.4 1.5-.6 2.4-.6.8 0 1.6.2 2.6.5v8.7c-1.4-.3-2.3-.5-2.8-.5s-.9-.1-1.4-.1c-1 0-1.8.3-2.3.8s-.8 1.4-.8 2.6v11.1h-11.1z"/></g></svg>