<svg xmlns="http://www.w3.org/2000/svg" xmlns:xlink="http://www.w3.org/1999/xlink" viewBox="0 0 312 96"><defs><style>.cls-1{fill:#409;}.cls-2{fill:#280070;}.cls-3{fill:url(#linear-gradient);}</style><linearGradient id="linear-gradient" x1="40" y1="12" x2="40" y2="72" gradientUnits="userSpaceOnUse"><stop offset="0" stop-color="#409"/><stop offset="0.33" stop-color="#3e0090"/><stop offset="0.88" stop-color="#2c0076"/><stop offset="1" stop-color="#280070"/></linearGradient></defs><title>ExtremeLogo.FullLockup_HOR.FullColor</title><g id="LOGOS.01"><path class="cls-1" d="M294,33v0a3,3,0,0,1,3-3,3,3,0,0,1,3,3v0a3,3,0,0,1-3,3A3,3,0,0,1,294,33Zm5.73,0v0A2.69,2.69,0,0,0,297,30.26,2.72,2.72,0,0,0,294.27,33v0A2.69,2.69,0,0,0,297,35.74,2.72,2.72,0,0,0,299.73,33Zm-3.91-1.62h1.38a1.27,1.27,0,0,1,.91.32.81.81,0,0,1,.25.6h0a.92.92,0,0,1-.8.91l1,1.23H298l-.88-1.16h-.79v1.16h-.46Zm1.34,1.5c.43,0,.73-.19.73-.54v0c0-.32-.27-.53-.71-.53h-.9v1.09Z"/><path class="cls-2" d="M193.84,83.71H192V71.17h1.84v2.18a4.66,4.66,0,0,1,4.23-2.45c3,0,4.73,2,4.73,5v7.79H201V76.38c0-2.32-1.24-3.78-3.42-3.78a3.67,3.67,0,0,0-3.7,3.93Z"/><path class="cls-2" d="M215.34,76.75c-.19-2.29-1.47-4.28-3.94-4.28-2.14,0-3.77,1.83-4,4.28Zm-3.6,5.62a5.08,5.08,0,0,0,3.89-1.77l1.15,1.05A6.37,6.37,0,0,1,211.69,84a6.19,6.19,0,0,1-6.17-6.55c0-3.64,2.51-6.55,5.93-6.55,3.65,0,5.76,3,5.76,6.65a4.09,4.09,0,0,1,0,.58h-9.79a4.35,4.35,0,0,0,4.35,4.24"/><path class="cls-2" d="M222.12,80.14a1.84,1.84,0,0,0,2.08,2.09,3.72,3.72,0,0,0,1.78-.44v1.6a4.52,4.52,0,0,1-2.21.54c-2,0-3.49-1-3.49-3.54V72.82h-1.72V71.17h1.72V67.38h1.84v3.79H226v1.65h-3.92Z"/><polygon class="cls-2" points="236.45 71.12 233.13 81.23 229.88 71.17 227.92 71.17 232.25 83.81 233.88 83.81 237.21 73.91 240.54 83.81 242.13 83.81 246.49 71.17 244.57 71.17 241.32 81.23 237.99 71.12 236.45 71.12"/><path class="cls-2" d="M254.07,72.55a4.58,4.58,0,0,0-4.52,4.87,4.69,4.69,0,0,0,4.57,4.91,4.59,4.59,0,0,0,4.54-4.86,4.7,4.7,0,0,0-4.59-4.92m0,11.45a6.38,6.38,0,0,1-6.4-6.53,6.44,6.44,0,1,1,6.4,6.53"/><path class="cls-2" d="M265.2,83.71h-1.84V71.17h1.84v3.27a5.29,5.29,0,0,1,5-3.49v2h-.14c-2.7,0-4.9,2-4.9,5.75Z"/><polygon class="cls-2" points="272.4 66 272.4 83.71 274.24 83.71 274.24 80.43 276.74 77.86 281.16 83.71 283.37 83.71 278.01 76.55 283.2 71.17 280.9 71.17 274.24 78.23 274.24 66 272.4 66"/><path class="cls-2" d="M289.6,84a8.41,8.41,0,0,1-5.11-1.84l.93-1.34a7.15,7.15,0,0,0,4.28,1.6c1.48,0,2.56-.77,2.56-2v0c0-1.27-1.46-1.75-3.08-2.21-1.94-.56-4.09-1.24-4.09-3.54v0c0-2.16,1.76-3.59,4.21-3.59a8.29,8.29,0,0,1,4.43,1.38l-.83,1.41a6.82,6.82,0,0,0-3.65-1.21c-1.46,0-2.4.77-2.4,1.82v0c0,1.19,1.54,1.65,3.19,2.17,1.91.58,4,1.33,4,3.58v0c0,2.38-1.93,3.76-4.4,3.76"/><path class="cls-1" d="M96,24h26v3.7h-22V40h19.65V43.7H100.06V56.3h22.22V60H96Z"/><path class="cls-1" d="M136.31,46.47l-10-13.06h4.53l7.87,10.29,7.86-10.29H151l-10.08,13L151.38,60H146.8l-8.23-10.85L130.29,60h-4.42Z"/><path class="cls-1" d="M158.13,53v-16h-3.71v-3.5h3.71v-8h4v8h8.43v3.5h-8.43V52.44c0,3.24,1.8,4.42,4.47,4.42a8.31,8.31,0,0,0,3.86-.92v3.39a10,10,0,0,1-4.79,1.13C161.37,60.46,158.13,58.35,158.13,53Z"/><path class="cls-1" d="M176,33.41h4v6.94c2-4.42,5.81-7.61,10.85-7.4v4.27h-.3c-5.82,0-10.55,4.16-10.55,12.19V60h-4Z"/><path class="cls-1" d="M206.37,57.17a11,11,0,0,0,8.38-3.75l2.47,2.21a13.72,13.72,0,0,1-10.95,5C199,60.62,193,55,193,46.73c0-7.71,5.4-13.88,12.75-13.88,7.87,0,12.4,6.27,12.4,14.09a13,13,0,0,1-.06,1.39H197C197.57,53.93,201.69,57.17,206.37,57.17Zm7.76-12c-.46-4.84-3.24-9-8.48-9-4.58,0-8.08,3.8-8.64,9Z"/><path class="cls-1" d="M223.59,33.41h4v4.48c1.75-2.63,4.11-5,8.59-5a9,9,0,0,1,8.53,5.29A10.6,10.6,0,0,1,254,32.85c6.12,0,9.88,4.11,9.88,10.69V60h-4V44.47c0-5.14-2.57-8-6.89-8-4,0-7.36,3-7.36,8.22V60h-3.91V44.37c0-5-2.62-7.92-6.84-7.92s-7.4,3.49-7.4,8.38V60h-4Z"/><path class="cls-1" d="M282.22,57.17a11,11,0,0,0,8.39-3.75l2.46,2.21a13.72,13.72,0,0,1-10.95,5c-7.3,0-13.27-5.61-13.27-13.89,0-7.71,5.4-13.88,12.76-13.88,7.86,0,12.39,6.27,12.39,14.09,0,.36,0,.77-.05,1.39H272.86C273.43,53.93,277.54,57.17,282.22,57.17Zm7.77-12c-.46-4.84-3.24-9-8.49-9-4.57,0-8.07,3.8-8.64,9Z"/><path class="cls-3" d="M68,13V23a1,1,0,0,1-1,1H25a1,1,0,0,0-1,1V45.51a6,6,0,0,1-1.76,4.25L12,60V13a1,1,0,0,1,1-1H67A1,1,0,0,1,68,13ZM37,48H59.15a1,1,0,0,0,1-1V37a1,1,0,0,0-1-1H37a1,1,0,0,0-1,1V47A1,1,0,0,0,37,48ZM12,60,22.24,70.24A6,6,0,0,0,26.49,72H67a1,1,0,0,0,1-1V61a1,1,0,0,0-1-1Z"/></g></svg>