<svg xmlns="http://www.w3.org/2000/svg" role="img" viewBox="-4.35 -2.60 195.70 213.20"><path fill="#fdfc00" d="M15.695 146.96831c0-.36461 77.81845-129.71855 78.03176-129.7085.11453.0054 3.65183 5.8014 7.86066 12.88 4.20883 7.0786 8.01581 13.44619 8.45995 14.15019.60289.95564 60.95711 101.34649 61.70638 102.64.0765.132-35.00548.24-77.95986.24-42.9544 0-78.09889-.09076-78.09889-.20169zm80.93781-2.71852c.66863-.23309 2.09717-1.56006 4.04775-3.75996 1.65794-1.86986 3.01444-3.50776 3.01444-3.63979 0-.13202-4.68-.24004-10.4-.24004-5.72 0-10.4.0861-10.4.19133 0 .10524 1.37937 1.76007 3.06526 3.6774 2.13797 2.43148 3.37224 3.57492 4.08 3.77981 1.4516.4202 5.377.41499 6.59255-.009zm7.84405-12.19099c.67045-.95721.62698-1.71996-.14186-2.4888-.61374-.61374-1.06667-.64-11.04-.64-9.97333 0-10.42626.0262-11.04.64-.76883.76884-.81231 1.53159-.14186 2.4888.49786.71079.50438.7112 11.18186.7112 10.67748 0 10.684-.00032 11.18186-.7112zm.16599-8.0088c.44287-.79188.44287-.96812 0-1.76l-.49216-.88-10.62354-.0843c-10.2793-.0816-10.64441-.0634-11.26784.56-.35437.35436-.64431.9323-.64431 1.2843s.28994.92994.6443 1.28431c.62344.62343.98855.64157 11.26785.56l10.62354-.08431zm1.35723-9.26295c.48352-3.87196 2.31764-8.10142 7.7213-17.80516 1.50323-2.69946 3.24782-6.13759 3.87686-7.64028 6.86438-16.39811-.059-32.14662-16.30324-37.08484-2.6356-.80122-3.3145-.87439-8-.86224-4.58496.01187-5.41416.10148-7.9349.8573-12.87502 3.8604-20.04999 14.4428-18.7861 27.70766.52259 5.4847 2.18448 9.61283 8.24902 20.49051 3.34234 5.995 4.97735 9.78449 5.52268 12.8.20689 1.144.43628 2.40569.50977 2.80375l.1336.72375 12.39169-.0838 12.39168-.0837zm-18.63413-14.29768c-4.80572-1.53814-8.7194-4.74666-10.71493-8.78433-1.51522-3.06583-2.21773-6.94242-1.77641-9.80256.35694-2.31332 1.82657-5.57337 3.01636-6.69111.88928-.83544.78721-.98077 1.488 2.11863.20893.924.4993 1.68.64526 1.68.14597 0 .4346-.81503.6414-1.81119.52989-2.55246 1.22893-4.03308 3.37513-7.14881 2.1207-3.0787 2.9886-5.22836 3.0038-7.44.0117-1.70275.23203-1.84663 1.21903-.79601.9385.99898 1.81795 3.13998 2.49584 6.07601.31492 1.364.69572 2.48.84621 2.48s1.09376-1.67955 2.09615-3.73233c1.9399-3.9727 2.2113-5.50786 1.5889-8.98767-.1338-.748-.11782-1.36.03548-1.36.54398 0 3.20551 2.58565 4.18737 4.06799 2.57455 3.88686 3.01812 10.60284 1.11039 16.81201-.29235.95151.46967.62437 2.10183-.90232l1.56333-1.46232.19779 1.54232c.70753 5.5172 1.51172 8.39496 2.0862 7.46542.27131-.43898.84227-3.51349 1.03493-5.5729l.087-.9298.97538.82387c1.8957 1.60124 3.32231 5.46983 3.3368 9.0485.0212 5.24979-2.51139 9.55185-7.04606 11.96881-2.40719 1.28302-4.57936 2.06338-4.25547 1.52879.13008-.2147.92004-1.4408 1.75547-2.72468 1.6016-2.46131 2.10975-4.296 1.71617-6.19618-.12184-.58823-.95527-2.91273-1.85206-5.16556-1.51388-3.80301-1.65918-4.0434-2.03102-3.36-.49939.91782-1.31261 4.08212-1.56667 6.09605-.10547.836-.32001 1.52-.47677 1.52-.47264 0-2.12138-2.61736-2.67373-4.24451-.82324-2.42516-.964-4.79473-.5254-8.84452.22485-2.07604.33355-3.9763.24157-4.2228-.23474-.62903-3.60652 6.50722-4.25562 9.00685-.83341 3.20947-.72274 2.99302-1.28976 2.52243-.91984-.7634-1.68348-2.71926-2.40585-6.16191-.39418-1.87855-.81697-3.41554-.93955-3.41554-.12258 0-.7819 1.404-1.46516 3.12-1.13162 2.84207-1.24032 3.37655-1.22025 6 .01734 2.2684.20422 3.39478.88 5.30406.47188 1.33323.85797 2.57975.85797 2.77004 0 1.10008-4.04274-1.98032-4.98152-3.79571-.72053-1.39336-1.2187-1.16646-.96959.44161.53668 3.46431 3.93074 7.67181 8.19992 10.16514 3.0342 1.77207 2.94181 2.04394-.33786.99423zm20.30706-4.52897c1.76807-1.8902 2.57576-3.46918 3.07648-6.01427.55436-2.81777.21423-5.77628-.95015-8.26451-1.05109-2.24611-1.62434-2.58833-1.62434-.9697 0 .58405-.22158 1.80805-.4924 2.72-.42406 1.42796-.6042 1.65808-1.29799 1.65808-1.08154 0-1.94277-1.95778-2.47108-5.6173l-.39693-2.74956-.63004.6962c-.34653.3829-1.01717.89637-1.49032 1.14105-.74908.38736-.92496.38017-1.36076-.05562-.62608-.62609-.63207-.49088.17137-3.8695.5323-2.2384.64306-3.52322.53324-6.18527-.16761-4.06314-.9451-6.33837-2.90453-8.49978L96.495 58.47148l-.01888 2.39284c-.01722 2.1818-.1534 2.67121-1.54408 5.54926-1.47374 3.04996-2.87021 5.24167-3.33332 5.23152-.72001-.01578-1.1531-.87111-1.83505-3.62415-.76636-3.09387-1.71015-5.4225-1.73585-4.28296-.03062 1.3578-1.34936 4.1603-3.3066 7.02697-1.94346 2.8465-3.42622 6.2631-3.42622 7.89475 0 .70041-.61712 1.31029-1.32586 1.31029-.74938 0-1.55414-1.21059-1.55414-2.33787 0-2.38443-1.99512.94275-2.5596 4.26853-.59453 3.50289.42586 7.9313 2.53132 10.98577.90102 1.30712 4.274 4.68357 4.67878 4.68357.11484 0-.44602-.72832-1.24636-1.6185C78.53581 92.29965 77.3 87.01 79.73017 87.01c.33982 0 .9274.51672 1.36454 1.2.99121 1.5493 2.96398 3.41088 2.6281 2.48-.5988-1.65962-1.1388-4.6576-1.14308-6.34625-.008-3.15073 2.59198-9.81375 3.8294-9.81375.84253 0 1.14599.66954 1.74573 3.85173.57479 3.04974 1.08599 4.7904 1.40496 4.78387.11835-.0026.47057-.80846.78272-1.79119.9106-2.86683 3.62243-8.3523 4.31137-8.72101.4658-.2493.78438-.22768 1.20782.08195.51484.37647.5449.68546.28668 2.9476-.15864 1.38988-.28582 4.11105-.2826 6.04705.0053 3.19671.08934 3.69634.91489 5.44l.90904 1.92.451-2.153c.81605-3.89566 2.10527-6.06398 3.04609-5.12317.8123.8123 3.69755 8.50898 3.9682 10.58557.2125 1.63039-.44176 4.05018-1.49789 5.54-.33118.46717-.60214.94416-.60214 1.05997 0 .51989 3.35313-1.6867 4.61801-3.03897z"/><path fill="#a0a0a0" d="M8.595 206.4714c.231-.0924.507-.0811.61333.0252.10634.10634-.08266.18197-.42.16807-.37278-.0154-.4486-.0912-.19333-.19333zm118.08-.32c.231-.0924.507-.0811.61333.0252.10634.10634-.0827.18197-.42.16807-.37278-.0154-.4486-.0912-.19333-.19333zm-110.12436-.32974c-.0861-.13841 1.196-.20583 2.8491-.14981l3.00567.10184.09194-9.38184.09194-9.38185-.0071 9.44-.0071 9.44-2.9339.0917c-1.61366.0504-3.00436-.0216-3.09047-.16zm55.29119-.17166c-.0842-.22-.11568-8.32-.06996-18l.08313-17.6 4.40043-.014 4.40043-.0141-4.32043.1031-4.32043.10306v35.48388l4.4.0988 4.4.0988-4.41004.0702c-3.2863.0523-4.44905-.0317-4.56313-.32981zm14.01317.1627c1.188-.0616 3.132-.0616 4.32 0 1.188.0616.216.11195-2.16.11195-2.376 0-3.348-.0504-2.16-.11195zm6.77812-.18433c-.089-.2319-.12047-1.9239-.06996-3.76L92.655 198.53l3.36-.0162 3.36-.0162-3.28.10706-3.28.10705v6.99596l3.28.10371 3.28.10371-3.29004.0675c-2.47606.0508-3.33007-.0368-3.45184-.35414zm16.25145.18456l8.54957-.0933.1069-3.51539.10689-3.51539-.0165 3.60059-.0165 3.6006-8.64.008-8.64.008 8.54957-.0934zm36.15643.00009c1.1803-.0614 3.1963-.0618 4.48-.00096 1.2837.0609.318.11113-2.146.11163-2.464.00064-3.5143-.0493-2.334-.11072zm9.36297-.15638c-.0868-.22633-.11787-5.16241-.0689-10.96908l.089-10.55756.0755 10.8.0755 10.8h8.63192l.0903-11.44.0903-11.44-.006 11.52-.006 11.52-4.40656.0891c-3.36145.0679-4.44401-.009-4.56447-.32243zM14.095 205.28918c0-.0664.252-.31845.56-.56.50754-.39804.51886-.38672.12082.12082-.41804.53304-.68082.70255-.68082.43918zM121.7446 204.05l-.6096-.72.72.6096c.396.33527.72.65927.72.72 0 .25608-.25753.067-.8304-.6096zm-93.91382-.48l-.77578-.88.88.77578c.8225.72508 1.02675.98422.77578.98422-.05732 0-.45332-.396-.88-.88zm23.04 0l-.77578-.88.88.77578c.8225.72508 1.02675.98422.77578.98422-.05732 0-.45332-.396-.88-.88zm86.26422.24c.31856-.352.65119-.64.73919-.64.088 0-.10063.288-.41919.64-.31856.352-.65119.64-.73919.64-.088 0 .10063-.288.41919-.64zm46.24.51918c0-.0665.252-.31845.56-.56.50754-.39804.51886-.38672.12082.12082-.41804.53304-.68082.70255-.68082.43918zm-15.08082-.75918c-.39804-.50754-.38672-.51886.12082-.12082.53304.41804.70255.68082.43918.68082-.0665 0-.31845-.252-.56-.56zM35.455 201.03807c.22-.0888.58-.0888.8 0 .22.0888.04.16141-.4.16141s-.62-.0726-.4-.16141zm23.04 0c.22-.0888.58-.0888.8 0 .22.0888.04.16141-.4.16141s-.62-.0726-.4-.16141zm71.06-.007c.231-.0924.507-.0811.61333.0252.10634.10634-.0827.18197-.42.16807-.37278-.0154-.4486-.0912-.19333-.19333zm46.72 0c.231-.0924.507-.0811.61333.0252.10634.10634-.0827.18197-.42.16807-.37278-.0154-.4486-.0912-.19333-.19333zm-164.82-.633c.22-.0888.58-.0888.8 0 .22.0888.04.16141-.4.16141s-.62-.0726-.4-.16141zm116.90526-.93474c.0154-.37278.0912-.4486.19334-.19333.0924.231.0811.507-.0252.61333-.10634.10634-.18197-.0827-.16807-.42zM68.86552 198.37c0-.44.07264-.62.16141-.4.08877.22.08877.58 0 .8-.08877.22-.1614.04-.1614-.4zm50.56 0c0-.44.0726-.62.16141-.4.0888.22.0888.58 0 .8-.0888.22-.16141.04-.16141-.4zm-73.58814-.48c.0065-.528.07824-.70526.15938-.39391.08113.31135.0758.74335-.01187.96-.08766.21665-.15404-.0381-.14752-.56609zM11.935 192.06941c.308-.0805.812-.0805 1.12 0 .308.0805.056.14635-.56.14635-.616 0-.868-.0659-.56-.14635zm25.26381-.33744c1.5311-.0585 4.1231-.0588 5.76-.00064 1.6369.0582.38419.10609-2.78381.10642-3.168.00032-4.50728-.0473-2.97619-.1058zm23.04 0c1.5311-.0585 4.1231-.0588 5.76-.00064 1.6369.0582.38419.10609-2.78381.10642-3.168.00032-4.50728-.0473-2.97619-.1058zm117.44 0c1.5311-.0585 4.1231-.0588 5.76-.00064 1.63691.0582.38419.10609-2.78381.10642-3.168.00032-4.50728-.0473-2.97619-.1058zM36.92001 184.77c.0013-1.232.05926-1.69679.12853-1.03286.06927.66392.0681 1.67192-.0026 2.24-.0707.56807-.12737.0249-.12595-1.20714zm8.91737.96c.0065-.528.07824-.70526.15938-.39391.08113.31135.0758.74335-.01187.96-.08766.21665-.15404-.0381-.14752-.56609zm23.02815-.48c0-.44.07262-.62.1614-.4.08877.22.08877.58 0 .8-.08877.22-.1614.04-.1614-.4zm50.55999-.64c0-.44.0726-.62.16141-.4.0888.22.0888.58 0 .8-.0888.22-.16141.04-.16141-.4zm-59.49628-1.28c0-.616.06586-.868.14635-.56.08049.308.08049.812 0 1.12-.0805.308-.14635.056-.14635-.56zm-37.42272-1.44c.0024-.88.06455-1.20202.1381-.7156.07356.48642.0716 1.20642-.0044 1.6-.07595.39358-.13613-.004-.13373-.8844zm105.85374.93333c.0154-.37278.0912-.4486.19334-.19333.0924.231.0811.507-.0252.61333-.10634.10634-.18197-.0827-.16807-.42zm23.36 0c.0154-.37278.0912-.4486.19334-.19333.0924.231.0811.507-.0252.61333-.10634.10634-.18197-.0827-.16807-.42zm25.62526-.13333c0-.44.0726-.62.16141-.4.0888.22.0888.58 0 .8-.0888.22-.16141.04-.16141-.4zM35.475 181.1914c.231-.0924.507-.0811.61333.0252.10634.10634-.08267.18197-.42.16807-.37278-.0154-.4486-.0912-.19333-.19333zm117.44 0c.231-.0924.507-.0811.61333.0252.10634.10634-.0827.18197-.42.16807-.37278-.0154-.4486-.0912-.19333-.19333zm30.9096-2.4214l-.6096-.72.72.6096c.396.33527.72.65927.72.72 0 .25608-.25753.067-.8304-.6096zm-32.09248-1.27097l-.0371-.87097-4.4-.0988-4.4-.0988 4.41004-.0702c4.65531-.0741 4.97821.026 4.61414 1.43112-.0991.38247-.16253.28336-.18706-.29228zm.60288.59015c0-.0665.252-.31845.56-.56.50754-.39804.51886-.38672.12082.12082-.41804.53304-.68082.70255-.68082.43918zm9.23918-.43918c-.39804-.50754-.38672-.51886.12082-.12082.308.24155.56.49355.56.56 0 .26337-.26278.0939-.68082-.43918zm-44.05122-3.68l-.068-3.76h-15.97904l-.10695 3.5206-.10694 3.52059.0165-3.60059.0165-3.6006 8.08793-.0855c6.49934-.0687 8.12004-.002 8.25143.34056.0899.23435.11694 2.00083.06 3.92552l-.10347 3.49942zM87.375 176.61l-3.68-.19234 3.58111-.0638c2.1141-.0377 3.66214.0673 3.77889.25617.10877.176.15327.29128.09889.25617-.0544-.03513-1.75489-.15041-3.77889-.2562zm-54.14-.5386c.231-.0924.507-.0811.61333.0252.10634.10634-.08267.18197-.42.16807-.37278-.0154-.4486-.0912-.19333-.19333zm4.16 0c.231-.0924.507-.0811.61333.0252.10634.10634-.08267.18197-.42.16807-.37278-.0154-.4486-.0912-.19333-.19333zm18.88 0c.231-.0924.507-.0811.61333.0252.10634.10634-.08267.18197-.42.16807-.37278-.0154-.4486-.0912-.19333-.19333zm4.16 0c.231-.0924.507-.0811.61333.0252.10634.10634-.08267.18197-.42.16807-.37278-.0154-.4486-.0912-.19333-.19333zm113.28 0c.231-.0924.507-.0811.61333.0252.10634.10634-.0827.18197-.42.16807-.37278-.0154-.4486-.0912-.19333-.19333zm4.16 0c.231-.0924.507-.0811.61333.0252.10634.10634-.0827.18197-.42.16807-.37278-.0154-.4486-.0912-.19333-.19333zm-166.4-.64c.231-.0924.507-.0811.61333.0252.10634.10634-.08267.18197-.42.16807-.37278-.0154-.4486-.0912-.19333-.19333zm-1.62-6.07333c.22-.0888.58-.0888.8 0 .22.0888.04.16141-.4.16141s-.62-.0726-.4-.16141zm2.40609-.01c.31135-.0811.74335-.0758.96.0119s-.03809.15404-.56609.14752c-.528-.007-.70526-.0782-.39391-.15938zM4.15777 159.09l-1.10277-1.2 1.2 1.10277c.66.60653 1.2 1.14653 1.2 1.2 0 .24436-.27079.0142-1.29723-1.10277zm-4.38207-12.4c.00355-.704.06908-.95432.14562-.55627.07655.39805.07364.97405-.00645 1.28-.0801.30595-.14272-.0197-.13917-.72373z"/><path fill="#a0a004" d="M15.375 147.25c-.00002-.21682 53.01719-.21604 128.64.002 15.576.0449-6.996.11682-50.16.15986-43.164.04293-78.48-.02986-78.48-.16186zm76.72-2.87431c.748-.0674 1.972-.0674 2.72 0 .748.0674.136.1225-1.36.1225s-2.108-.0551-1.36-.1225zM87.33418 142.13c-.39804-.50754-.38672-.51886.12082-.12082.308.24155.56.49355.56.56 0 .26337-.26278.0939-.68082-.43918zm12.04082-.4c.31856-.352.65119-.64.73919-.64.088 0-.10063.288-.41919.64-.31856.352-.6512.64-.7392.64-.088 0 .10064-.288.4192-.64zm-14.28082-2.16c-.39804-.50754-.38672-.51886.12082-.12082.53304.41804.70255.68082.43918.68082-.06645 0-.31845-.252-.56-.56zm16.52082-.4c.31856-.352.65119-.64.73919-.64.088 0-.10063.288-.41919.64-.31856.352-.65119.64-.73919.64-.088 0 .10063-.288.41919-.64zm-18.50667-1.81333c-.11733-.11734-.21333-.33334-.21333-.48 0-.14667 4.68-.26667 10.4-.26667 5.72 0 10.40007.108 10.40016.24.00009.132-4.61884.20006-10.2643.15125-6.96524-.0602-10.19914.0169-10.06126.24.22823.3693.0648.44149-.26127.11542zm-.89415-5.14667c-.39804-.50754-.38672-.51886.12082-.12082.308.24155.56.49355.56.56 0 .26337-.26278.0939-.68082-.43918zm-.54866-1.36c0-.44.07264-.62.16141-.4.08877.22.08877.58 0 .8-.08877.22-.1614.04-.1614-.4zm21.73615-5.85055c.0733-.0498.42133-.3018.77333-.56.592-.43424.60706-.42745.20082.0906-.24155.308-.58955.56-.77334.56-.18378 0-.27415-.0408-.20081-.0906zM81.66553 123.17c0-.44.07262-.62.1614-.4.08877.22.08877.58 0 .8-.08877.22-.1614.04-.1614-.4zm22.30865-1.52c-.39804-.50754-.38672-.51886.12082-.12082.53304.41804.70255.68082.43918.68082-.0665 0-.31845-.252-.56-.56zm1.66608-5.70667c.0154-.37278.0912-.4486.19334-.19333.0924.231.0811.507-.0252.61333-.10634.10634-.18197-.0827-.16807-.42zM80.70552 115.49c0-.44.07263-.62.16141-.4.08877.22.08877.58 0 .8-.08877.22-.1614.04-.1614-.4zm19.95175-14.71634c-.11211-.1814.0164-.23504.30111-.12576.55437.21273.6558.4421.19551.4421-.16562 0-.3891-.14235-.49662-.31634zm6.55773-3.00448c0-.06645.252-.31845.56-.56.50754-.39804.51886-.38672.12082.12082-.41804.53304-.68082.70255-.68082.43918zm-24.63073-.50668c-.2589-.16373-.38743-.38101-.2856-.48283.10182-.10183.36728.03435.58991.3026.46163.55623.37312.60865-.30431.18023zm.6065-1.2125l-.77577-.88.88.77578c.8225.72508 1.02675.98422.77578.98422-.05732 0-.45332-.396-.88-.88zm25.30423.43918c0-.06645.252-.31845.56-.56.50754-.39804.51886-.38672.12082.12082-.41804.53304-.68082.70255-.68082.43918zM104.10216 93.09c0-.792.0624-1.116.13867-.72.0763.396.0763 1.044 0 1.44-.0763.396-.13867.072-.13867-.72zm-22.3473-2.32l-.93986-1.04 1.04.93987c.572.51693 1.04.98493 1.04 1.04 0 .24722-.26404.02957-1.14013-.93987zm16.8454-.74667c.01536-.37278.09118-.4486.19333-.19333.09245.231.08108.507-.02524.61333-.10634.10634-.18197-.08267-.16808-.42zm13.12 0c.0154-.37278.0912-.4486.19334-.19333.0924.231.0811.507-.0252.61333-.10634.10634-.18197-.08267-.16807-.42zM79.695 88.29c-.28841-.18639-.32788-.31216-.09889-.3151.20962-.00256.47012.1391.57889.3151.24554.39729.13476.39729-.48 0zm3.86526-2.42667c.01536-.37278.09118-.4486.19333-.19333.09244.231.08107.507-.02525.61333-.10633.10634-.18196-.08267-.16807-.42zM74.62552 85.41c0-.44.07264-.62.16141-.4.08877.22.08877.58 0 .8-.08877.22-.1614.04-.1614-.4zm14.94866-.24c-.38858-.49548-.38049-.51423.07026-.16278.2802.21848.62728.29048.7713.16.14403-.13047.15828-.05722.03168.16278-.29753.51702-.34978.50745-.87323-.16zm-13.95848-1.2c.0036-.704.06908-.95432.14562-.55627.07654.39805.07363.97405-.0065 1.28-.08009.30595-.14272-.01974-.13917-.72373zm19.14456.29333c.01536-.37278.09118-.4486.19333-.19333.09244.231.08107.507-.02525.61333-.10633.10634-.18196-.08267-.16807-.42zm-11.2-1.6c.01536-.37278.09118-.4486.19333-.19333.09244.231.08107.507-.02525.61333-.10633.10634-.18196-.08267-.16807-.42zM74.62552 82.21c0-.44.07264-.62.16141-.4.08877.22.08877.58 0 .8-.08877.22-.1614.04-.1614-.4zm45.09474-.50667c.0154-.37278.0912-.4486.19334-.19333.0924.231.0811.507-.0252.61333-.10634.10634-.18197-.08267-.16807-.42zm-53.12-.32c.01536-.37278.09118-.4486.19333-.19333.09245.231.08108.507-.02524.61333-.10634.10634-.18197-.08267-.16808-.42zM107.2957 79.17c.004-.704.0691-.95432.14562-.55627.0765.39805.0736.97405-.006 1.28-.0801.30595-.14272-.01974-.13917-.72373zm-11.57544-.34667c.01536-.37278.09118-.4486.19334-.19333.09243.231.08106.507-.02526.61333-.10633.10634-.18196-.08267-.16806-.42zM120.1247 76.93c.001-1.408.0574-1.9442.12502-1.19154.0676.75265.0667 1.90465-.002 2.56-.0688.65535-.12407.03954-.12291-1.36846zm-25.33918 1.44c0-.44.07264-.62.16141-.4.08877.22.08877.58 0 .8-.08877.22-.1614.04-.1614-.4zm9.89474.13333c.0154-.37278.0912-.4486.19334-.19333.0924.231.0811.507-.0252.61333-.10634.10634-.18197-.08267-.16807-.42zM66.34216 76.77c0-.792.0624-1.116.13867-.72.07627.396.07627 1.044 0 1.44-.07627.396-.13867.072-.13867-.72zm36.07284-.48c.59705-.616 1.15755-1.12 1.24555-1.12.088 0-.3285.504-.92555 1.12-.59705.616-1.15755 1.12-1.24555 1.12-.088 0 .3285-.504.92555-1.12zm-7.30947-.48c0-.44.07262-.62.1614-.4.08877.22.08877.58 0 .8-.08877.22-.1614.04-.1614-.4zm-8.85053 0c-.10877-.176-.04527-.32.14111-.32.1864 0 .33889.144.33889.32 0 .176-.0635.32-.14111.32-.07761 0-.23012-.144-.33889-.32zm18.13052-.32c0-.44.0726-.62.16141-.4.0888.22.0888.58 0 .8-.0888.22-.16141.04-.16141-.4zm-37.78526-3.06667c.01536-.37278.09118-.4486.19333-.19333.09245.231.08108.507-.02524.61333-.10634.10634-.18197-.08267-.16808-.42zM101.8826 69.09c0-1.32.0565-1.86.12552-1.2.069.66.069 1.74 0 2.4-.069.66-.12552.12-.12552-1.2zm-15.12233-5.30667c.01536-.37278.09118-.4486.19334-.19333.09244.231.08107.507-.02525.61333-.10634.10634-.18197-.08267-.16807-.42zM86.735 61.7489c0-.34162.1232-.69726.27377-.79032.15058-.09306.2058.18644.1227.62111-.18049.94415-.39647 1.03633-.39647.1692zm8.66526-.20556c.01536-.37278.09118-.4486.19333-.19333.09244.231.08107.507-.02525.61333-.10633.10634-.18196-.08267-.16807-.42zM72.015 60.64918c0-.06645.252-.31845.56-.56.50754-.39804.51886-.38672.12082.12082-.41804.53304-.68082.70255-.68082.43918zm23.38526-.70585c.01536-.37278.09118-.4486.19333-.19333.09244.231.08107.507-.02525.61333-.10633.10634-.18196-.08267-.16807-.42zM74.575 58.08918c0-.06645.252-.31845.56-.56.50754-.39804.51886-.38672.12082.12082-.41804.53304-.68082.70255-.68082.43918zm36.43918-.75918c-.39804-.50754-.38672-.51886.12082-.12082.53304.41804.70255.68082.43918.68082-.0665 0-.31845-.252-.56-.56zM87.955 51.5914c.231-.09243.507-.08106.61333.02526.10634.10633-.08267.18196-.42.16806-.37278-.01536-.4486-.09118-.19333-.19333zm4.30965-.337c.84132-.06615 2.13732-.06535 2.88.0019.7427.0671.05435.12122-1.52965.12024-1.584-.00096-2.19165-.05588-1.35035-.12202z"/><path fill="#5f5f5f" d="M9.70109 206.46824c.31135-.0811.74335-.0758.96.0119.21665.0876-.03809.15403-.56609.14751-.528-.007-.70526-.0782-.39391-.15937zm24.47391-.31017c.22-.0888.58-.0888.8 0 .22.0888.04.16141-.4.16141s-.62-.0726-.4-.16141zm2.88 0c.22-.0888.58-.0888.8 0 .22.0888.04.16141-.4.16141s-.62-.0726-.4-.16141zm20.16 0c.22-.0888.58-.0888.8 0 .22.0888.04.16141-.4.16141s-.62-.0726-.4-.16141zm3.22-.007c.231-.0924.507-.0811.61333.0252.10634.10634-.08267.18197-.42.16807-.37278-.0154-.4486-.0912-.19333-.19333zm67.18.007c.22-.0888.58-.0888.8 0 .22.0888.04.16141-.4.16141s-.62-.0726-.4-.16141zm3.2 0c.22-.0888.58-.0888.8 0 .22.0888.04.16141-.4.16141s-.62-.0726-.4-.16141zm43.84 0c.22-.0888.58-.0888.8 0 .22.0888.04.16141-.4.16141s-.62-.0726-.4-.16141zm3.2 0c.22-.0888.58-.0888.8 0 .22.0888.04.16141-.4.16141s-.62-.0726-.4-.16141zM80.73055 199.49c-.03085-3.52.04753-6.184.17418-5.92.12665.264.15189 3.144.0561 6.4l-.1742 5.92zm18.60546 2.72c0-2.024.05196-2.852.11547-1.84.0635 1.012.0635 2.668 0 3.68s-.11547.184-.11547-1.84zm43.54648-11.04c.00007-8.096.0416-11.36212.0923-7.25805.0507 4.10406.0506 10.72806-.00012 14.72-.0507 3.99193-.0922.63405-.0922-7.46195zM3.34459 203.73l-.60959-.72.72.6096c.396.33527.72.65927.72.72 0 .25608-.25753.067-.8304-.6096zm31.03474-8.08c.00064-2.288.05153-3.18201.11327-1.98669.06174 1.19532.06128 3.06732-.00096 4.16-.0623 1.09268-.11281.11469-.11225-2.17331zm23.03899-.16c0-2.2.05113-3.1.1136-2 .0625 1.1.0625 2.9 0 4-.06248 1.1-.1136.2-.1136-2zm120.63027 1.12c-.00096-1.584.0531-2.27235.12024-1.52965.0671.74268.0679 2.03868.002 2.88-.0661.8413-.12104.23365-.12202-1.35035zm-152.40833 1.89333c.01535-.37278.09118-.4486.19334-.19333.09244.231.08107.507-.02526.61333-.10634.10634-.18197-.0827-.16807-.42zM131.03338 191.33c0-4.312.0453-6.076.10066-3.92.0554 2.156.0554 5.684 0 7.84-.0554 2.156-.10066.392-.10066-3.92zm-93.46657 4.8c0-1.496.05512-2.108.1225-1.36.06737.748.06737 1.972 0 2.72-.06737.748-.1225.136-.1225-1.36zm11.11345 2.05333c.01536-.37278.09118-.4486.19333-.19333.09244.231.08107.507-.02525.61333-.10633.10634-.18196-.0827-.16807-.42zM60.60681 196.13c0-1.496.05512-2.108.1225-1.36.06737.748.06737 1.972 0 2.72-.06737.748-.1225.136-.1225-1.36zm114.24789-.8c.00064-1.936.0534-2.68674.11713-1.66832.0637 1.01843.0631 2.60243-.001 3.52-.0644.91758-.11654.0843-.11582-1.85168zm11.47454 2.4c0-.616.0659-.868.14635-.56.0805.308.0805.812 0 1.12-.0805.308-.14635.056-.14635-.56zm-185.30371 0c0-.44.07263-.62.1614-.4.08877.22.08877.58 0 .8-.08877.22-.1614.04-.1614-.4zm138.57185-.16c.007-.528.0782-.70526.15938-.39391.0811.31135.0758.74335-.0119.96-.0876.21665-.15403-.0381-.14751-.56609zm26.54814.16c0-.44.0726-.62.16141-.4.0888.22.0888.58 0 .8-.0888.22-.16141.04-.16141-.4zM68.92 195.65c.0013-1.232.05927-1.69679.12854-1.03286.06927.66392.0681 1.67192-.0026 2.24-.0707.56807-.12737.0249-.12595-1.20714zm50.58946-4.16c-.00028-3.52.0465-5.00366.1039-3.29702.0574 1.70664.0576 4.58664.00064 6.4-.0572 1.81336-.10413.41702-.10441-3.10298zm-105.94265 3.36c0-1.496.05512-2.108.1225-1.36.06737.748.06737 1.972 0 2.72-.06737.748-.1225.136-.1225-1.36zm32.30735.48c.0019-1.056.06154-1.44942.13275-.87427.07122.57515.06975 1.43915-.0033 1.92-.07302.48085-.13128.0103-.12949-1.04573zm-34.19855-6.08l.01939-2.56 5.3603-.012 5.36032-.012-5.2675.0997-5.26748.0996-.11221 2.47232-.1122 2.47232zm34.2112-.16c0-1.496.05512-2.108.1225-1.36.06737.748.06737 1.972 0 2.72-.06737.748-.1225.136-.1225-1.36zm23.04355-.32c0-1.672.05393-2.356.11985-1.52.06592.836.06592 2.204 0 3.04-.06592.836-.11985.152-.11985-1.52zm-34.5427-2.03583c-.09197-.23971-.11468-1.28371-.05045-2.32l.11678-1.88417.06051 2.1416.06051 2.1416 1.36.12249 1.36.1225-1.37004.0559c-.90275.0368-1.42709-.0927-1.5373-.37992zm23.03912-.002c-.09247-.24098-.11459-1.21298-.04915-2.16l.11898-1.72186.0592 1.9816.05918 1.9816 1.36.1225 1.36.12249-1.37004.0559c-.90609.037-1.42698-.0925-1.53817-.38224zm117.43685-.008c-.0942-.24549-.11389-1.00149-.0437-1.68.12264-1.18633.1296-1.17606.18133.26795l.0538 1.5016 1.36.12249 1.36.1225-1.37004.0559c-.91767.0375-1.4266-.0915-1.54133-.39044zm11.46561-.83417c0-.616.0659-.868.14635-.56.0805.308.0805.812 0 1.12-.0805.308-.14635.056-.14635-.56zm-20.18372-1.28c0-.44.0726-.62.16141-.4.0888.22.0888.58 0 .8-.0888.22-.16141.04-.16141-.4zM80.655 177.57c0-4.10667.06691-7.39976.14868-7.31798.2175.2175.25114 14.38482.03466 14.6013-.10083.10084-.18334-3.17665-.18334-7.28332zm-31.97474 6.53333c.01536-.37278.09118-.4486.19334-.19333.09243.231.08106.507-.02526.61333-.10633.10634-.18196-.0827-.16806-.42zm90.88 0c.0154-.37278.0912-.4486.19334-.19333.0924.231.0811.507-.0252.61333-.10634.10634-.18197-.0827-.16807-.42zm-113.92-.32c.01535-.37278.09118-.4486.19334-.19333.09244.231.08107.507-.02526.61333-.10634.10634-.18197-.0827-.16807-.42zm128.68898-.45333c0-.616.0659-.868.14635-.56.0805.308.0805.812 0 1.12-.0805.308-.14635.056-.14635-.56zM13.2008 180.37l.0658-2.96.10653 2.79129.10653 2.79129 4.54767.0982 4.54767.0982-4.72.0705-4.72.0705zm149.71946.53333c.0154-.37278.0912-.4486.19334-.19333.0924.231.0811.507-.0252.61333-.10634.10634-.18197-.0827-.16807-.42zM1.03738 178.69c.00652-.528.07824-.70526.15938-.39391.08113.31135.0758.74335-.01186.96s-.15404-.0381-.14752-.56609zm26.81762 0c.41336-.44.82356-.8.91156-.8.088 0-.1782.36-.59156.8-.41336.44-.82356.8-.91156.8-.088 0 .1782-.36.59156-.8zm22.72.35918c0-.0665.252-.31845.56-.56.50754-.39804.51886-.38672.12082.12082-.41804.53304-.68082.70255-.68082.43918zm-28.45474-1.02585c.01535-.37278.09118-.4486.19334-.19333.09244.231.08107.507-.02526.61333-.10634.10634-.18197-.0827-.16807-.42zM34.655 176.0608c.484-.0733 1.276-.0733 1.76 0s.088.13331-.88.13331-1.364-.06-.88-.13331zm23.04 0c.484-.0733 1.276-.0733 1.76 0s.088.13331-.88.13331-1.364-.06-.88-.13331zm70.88573-.003c.57515-.0712 1.43915-.0697 1.92.003.48085.073.0103.13129-1.04573.1295-1.056-.002-1.44942-.0615-.87427-.13276zm28.158.006c.39805-.0765.97405-.0736 1.28.006.30595.0801-.0197.14272-.72373.13917-.704-.004-.95432-.0691-.55627-.14562zm18.39627-.003c.484-.0733 1.276-.0733 1.76 0s.088.13331-.88.13331-1.364-.06-.88-.13331zM19.83078 172.53l-.77578-.88.88.77578c.8225.72508 1.02675.98422.77578.98422-.05732 0-.45332-.396-.88-.88zm-8.67578-3.1786c.231-.0924.507-.0811.61333.0252.10634.10634-.08267.18197-.42.16807-.37278-.0154-.4486-.0912-.19333-.19333zm171.58-10.1814c.59705-.616 1.15755-1.12 1.24555-1.12.088 0-.3285.504-.92555 1.12-.59705.616-1.15755 1.12-1.24555 1.12-.088 0 .3285-.504.92555-1.12zm4.57916-12.48c.002-1.056.0615-1.44942.13275-.87427.0712.57515.0697 1.43915-.003 1.92-.073.48085-.13129.0103-.12949-1.04573zM82.255 5.89c.41336-.44.82356-.8.91156-.8.088 0-.1782.36-.59156.8-.41336.44-.82356.8-.91156.8-.088 0 .1782-.36.59156-.8zm8.26-4.2186c.231-.09244.507-.08107.61333.02527.10634.10633-.08267.18196-.42.16807-.37278-.01536-.4486-.09118-.19333-.19334zm5.76 0c.231-.09244.507-.08107.61333.02527.10634.10633-.08267.18196-.42.16807-.37278-.01536-.4486-.09118-.19333-.19334z"/><path fill="#fe0400" d="M103.99236 97.4994c1.79389-3.17861 1.66065-5.54998-.62181-11.06629-1.77962-4.30105-2.01282-4.70311-2.72782-4.70311-.81534 0-1.94706 2.25137-2.50386 4.98102-.4122 2.0208-.42112 2.03298-.9144 1.24984-1.33863-2.12524-1.65958-5.6222-1.08637-11.8368.2414-2.6172.20964-3.10513-.22572-3.46644-1.00468-.8338-1.68218-.11464-3.50303 3.71846-.98078 2.06466-1.96153 4.36592-2.17945 5.11392-.21791.748-.51339 1.36-.65661 1.36-.31449 0-1.0458-2.57279-1.56596-5.5092-.80886-4.56607-2.47877-3.64858-4.62881 2.54319-1.15788 3.33449-1.05725 6.6789.32514 10.80601.23014.68707-1.81657-1.37253-2.8236-2.84139-.31621-.46123-.83858-.83861-1.16082-.83861-2.27453 0-1.28827 5.16915 1.61775 8.47893 1.67067 1.9028.82497 1.57688-1.07384-.41383-2.99609-3.14108-4.40815-6.71314-4.40815-11.15118 0-2.65837.6713-5.24452 1.73737-6.69306.49586-.67378.56769-.5839.95638 1.19676.10297.4717.41973 1.09015.70392 1.37434.87678.87678 1.76898-.03628 2.3658-2.4211.6143-2.45472 1.8624-4.9872 3.54215-7.1873 1.40191-1.83619 2.37805-3.88944 2.71266-5.70594.20134-1.09305.27102-1.16997.57968-.64.19295.33131.719 2.10225 1.169 3.93543 1.29385 5.27084 1.96685 5.2221 4.81147-.34845 1.93937-3.79783 2.0152-4.0361 2.03794-6.40365l.02362-2.45905.8541.81411c1.15037 1.0965 2.65874 4.03926 3.14805 6.14171.51788 2.22515.26465 7.20312-.51148 10.05503-.88181 3.24023.0901 4.3377 2.20052 2.48473.61231-.53761 1.1824-.97748 1.26686-.97748.0845 0 .24741.91596.36211 2.03547.42768 4.1744 1.98653 7.01212 3.19058 5.80807.56064-.56064 1.16207-2.4503 1.17237-3.68354.0145-1.74036.53147-1.71925 1.40061.0572 2.48947 5.0883 1.47457 11.63891-2.33136 15.04763-.84448.75635-2.14264 1.71368-2.88482 2.12741l-1.3494.75224.97921-1.73508z"/><path fill="#616103" d="M88.29418 143.09c-.39804-.50754-.38672-.51886.12082-.12082.53304.41804.70255.68082.43918.68082-.06645 0-.31845-.252-.56-.56zm9.80082-.08c.31856-.352.6512-.64.7392-.64.088 0-.10064.288-.4192.64-.31856.352-.6512.64-.7392.64-.088 0 .10064-.288.4192-.64zm-12.04082-2.48c-.39804-.50754-.38672-.51886.12082-.12082.53304.41804.70255.68082.43918.68082-.06645 0-.31845-.252-.56-.56zm14.12082.11918c0-.0665.252-.31845.56-.56.50754-.39804.51886-.38672.12082.12082-.41804.53304-.68082.70255-.68082.43918zM83.81418 137.97c-.39804-.50754-.38672-.51886.12082-.12082.53304.41804.70255.68082.43918.68082-.06645 0-.31845-.252-.56-.56zm18.60082.11918c0-.0665.252-.31845.56-.56.50754-.39804.51886-.38672.12082.12082-.41804.53304-.68082.70255-.68082.43918zm-14.13985-9.0787c2.87109-.0531 7.47909-.053 10.24.00023 2.76092.0532.41185.0966-5.22015.0965-5.632-.00013-7.89093-.0437-5.01985-.0968zM112.06552 87.01c0-.44.0726-.62.16141-.4.0888.22.0888.58 0 .8-.0888.22-.16141.04-.16141-.4zM83.6157 84.29c.0036-.704.06908-.95432.14562-.55627.07654.39805.07363.97405-.0065 1.28-.08009.30595-.14272-.01974-.13917-.72373zm25.3289-6l-.6096-.72.72.6096c.67662.57287.86568.8304.6096.8304-.0607 0-.38473-.324-.72-.72zm-5.01493-3.4797c.21706-.2187.47527-.31702.5738-.2185.0985.09852-.0791.27746-.39467.39763-.45606.17366-.49282.1369-.17913-.17914zm-17.1694-11.98697c.01535-.37278.09117-.4486.19333-.19333.09244.231.08107.507-.02525.61333-.10634.10634-.18197-.08267-.16807-.42zM112.79993 59.09l-1.26494-1.36 1.36 1.26494c1.26479 1.17639 1.50705 1.45506 1.26494 1.45506-.0523 0-.66428-.612-1.36-1.36zM73.615 59.01c.41336-.44.82356-.8.91156-.8.088 0-.1782.36-.59156.8-.41336.44-.82356.8-.91156.8-.088 0 .1782-.36.59156-.8zm23.81987-1.2l-.93987-1.04 1.04.93987c.96943.87609 1.18709 1.14013.93987 1.14013-.05507 0-.52307-.468-1.04-1.04z"/><path d="M6.55408 205.76507c-1.75741-.79822-3.56445-2.43507-4.31724-3.91066C1.27133 199.96184.988 196.931.98377 188.45c-.00635-12.7235.48005-14.84124 3.93018-17.11175 2.19903-1.44717 4.09666-1.87763 7.5049-1.70242 3.5285.1814 5.60771 1.04148 7.55784 3.12632 1.68705 1.80359 2.06635 2.96178 2.33431 7.12785l.20068 3.12h-8.97279l-.14868-3.34303c-.09126-2.05205-.30795-3.53495-.56113-3.84-.57348-.69101-1.84472-.62187-2.24282.12199-.45197.84452-.45197 23.19756 0 24.04208.39419.73654 1.66711.81487 2.33812.14387.52141-.52142.96996-4.21698.79681-6.56491-.09602-1.30204-.1905-1.4497-.98619-1.54125-.87754-.10098-.88-.10835-.88-2.64V186.85h10.56v18.88H16.68069l-.38937-1.29962-.38938-1.29961-.7736.98848c-1.71948 2.19709-5.68477 2.95822-8.57426 1.64582zm27.00951.2672c-3.76256-.56521-6.474-2.65878-7.35075-5.67567-.31754-1.09265-.43784-3.66067-.43784-9.3466 0-8.98188.23416-10.20511 2.3488-12.27001 1.77956-1.73769 3.93427-2.44999 7.4112-2.44999 4.71128 0 7.5926 1.48945 9.1875 4.74932.80749 1.65045.8937 2.18335 1.00422 6.20805l.1209 4.40263H34.255l.0047 3.92c.0053 4.40201.31888 5.46276 1.66117 5.61918 1.22802.1431 1.61241-.82277 1.7893-4.49604l.1504-3.12314H45.775l-.0032 2.96c-.0036 3.46569-.73396 5.45114-2.7115 7.3717-1.90912 1.85412-5.6902 2.70239-9.49678 2.13057zm3.57141-21.36111c0-1.55116-.1585-2.7156-.41793-3.07039-.6012-.8222-1.89956-.55429-2.17706.44923-.29153 1.05427-.34383 4.63451-.07168 4.90667.11734.11733.76534.21333 1.44.21333H37.135zm19.45602 21.36646c-2.05925-.31679-4.55009-1.47315-5.60039-2.59993-.3874-.41561-1.0354-1.47387-1.44-2.35168-.70655-1.53292-.73563-1.91859-.73563-9.75601 0-9.33468.2194-10.5107 2.3488-12.59001 1.77955-1.73769 3.93427-2.44999 7.4112-2.44999 4.74885 0 7.57466 1.45278 9.17057 4.71471.82742 1.69118.91002 2.19619 1.02115 6.24266l.1209 4.40263H57.23222l.1114 4.27132c.11947 4.58119.36346 5.32868 1.73931 5.32868 1.11337 0 1.49852-1.05267 1.66726-4.55686l.15038-3.12314h7.9727l-.11312 3.28c-.12969 3.76074-.62405 5.09737-2.59142 7.00663-1.96864 1.91051-5.74545 2.77055-9.5777 2.18099zm3.58398-21.36646c0-2.91471-.41857-3.78643-1.6676-3.47295-.6303.1582-.85079.46653-1.00626 1.40719-.26402 1.59741-.2599 4.08417.0072 4.35127.11733.11733.76533.21333 1.44.21333H60.175v-2.49884zm66.88 21.39562c-2.34709-.31435-4.46967-1.29182-5.52268-2.54325-1.5839-1.88236-1.83732-3.54212-1.83732-12.03353 0-10.34713.5092-12.04202 4.23861-14.10839 1.59483-.88365 1.87909-.93161 5.52139-.93161 4.35348 0 5.85731.46654 7.81539 2.42461 2.07753 2.07753 2.37221 3.2527 2.52154 10.05539.21676 9.87427-.49653 13.24573-3.24604 15.34288-2.05603 1.56821-5.83827 2.28311-9.49089 1.7939zm3.56082-5.34615c.34934-.42108.43918-2.3749.43918-9.55097 0-9.44323-.0893-10.07966-1.41518-10.07966-1.24453 0-1.30482.4658-1.30482 10.08 0 6.816.10293 9.41493.384 9.696.54115.54115 1.38064.47681 1.89682-.14537zm43.4152 5.31699c-3.64745-.56113-6.4094-2.71547-7.32256-5.71165-.52113-1.70988-.7588-12.86219-.34037-15.97137.41689-3.09777 1.18481-4.75521 2.83762-6.12464 1.79026-1.4833 4.05786-2.03565 7.73315-1.88366 2.6603.11001 3.30781.25394 4.78992 1.0647 3.4296 1.87609 4.36573 3.90789 4.71749 10.23891l.22143 3.98529-5.88635.0874-5.88635.0874.0156 4.20964c.0167 4.50571.23622 5.23036 1.58438 5.23036 1.26003 0 1.57836-.81201 1.70974-4.36128l.12285-3.31872h8.32352l-.21369 3.12c-.26229 3.82966-1.2312 6.06497-3.3192 7.65754-2.09015 1.59422-5.53985 2.23581-9.0872 1.69008zm3.51644-21.63381c-.0742-2.2209-.20285-2.83561-.65246-3.11836-1.05529-.66366-1.65327.13378-1.96199 2.61644-.36553 2.93936-.22425 3.26811 1.40441 3.26811h1.3025zM72.015 187.97v-17.76h8.64v7.424c0 4.0832.12158 7.2872.27018 7.12.1486-.1672.8219-2.068 1.49621-4.224l1.22603-3.92h3.62379c1.99308 0 3.62379.0757 3.62379.16825 0 .0925-.79085 2.72054-1.75744 5.84L87.38012 188.29l2.34393 8.72 2.34392 8.72h-8.38336l-1.24905-5.84c-.68698-3.212-1.36427-6.056-1.50508-6.32-.1408-.264-.2604 2.364-.26575 5.84l-.0097 6.32h-8.64zm20.8 14.24v-3.52h6.4v7.04h-6.4zm7.68 1.16174c0-2.09484.4058-3.68538 3.63313-14.24l3.63312-11.88174H101.455v-7.04h16l-.001 3.6-.001 3.6-3.35744 10.4c-1.84642 5.72-3.35778 10.508-3.35857 10.64-.00064.132 1.51057.24 3.35857.24h3.36v7.04h-16.96zm42.56-12.20174v-14.56h8.64v2.46091l1.2778-1.21554c1.43749-1.36746 2.67147-1.71517 5.3103-1.49634 1.99321.16529 3.16346.88027 4.1319 2.52442.60651 1.02969.64522 1.7606.73972 13.96655l.0997 12.88H154.575v-11.49917c0-6.69711-.13032-11.84195-.31208-12.32-.38398-1.00994-1.73875-1.13222-2.23666-.20187-.21102.3943-.33126 4.86613-.33126 12.32V205.73h-8.64zM9.38653 162.06576c-5.80787-1.8151-9.19218-7.4089-9.2057-15.21576-.00719-4.14425.3573-5.277 3.41067-10.59968C8.06443 128.45305 60.4128 41.40304 77.07787 14.05c4.41675-7.24939 6.35755-9.51796 9.42788-11.02013 4.01354-1.96365 10.79994-1.87505 14.67739.1916 2.85977 1.52425 4.58844 3.40643 7.4472 8.10853 20.38078 33.52242 62.75148 103.90317 72.23371 119.98534 5.73853 9.73275 6.35095 11.23054 6.35095 15.53257 0 2.95326-.96379 7.10052-2.22431 9.57133-1.02717 2.01344-4.07402 4.56965-6.4293 5.394l-2.06639.72324-82.88-.0246c-67.60228-.02015-83.12857-.10238-84.22847-.44612zM172.175 147.34537c0-.14863-60.19008-100.3968-61.71262-102.78399-.46606-.73074-4.37538-7.24122-8.68738-14.46773-4.312-7.22651-7.96339-13.1035-8.1142-13.05999-.3211.09267-78.2858 129.71702-78.2858 130.15823 0 .18334 30.18454.29811 78.4.29811 43.12 0 78.4-.0651 78.4-.14463zm-82.41519-3.34711c-.55417-.23656-1.93478-1.69146-6.0241-6.34826l-.63227-.72h20.32534l-.95792 1.2c-.52685.66-1.95922 2.28-3.18303 3.6l-2.22512 2.4-3.32386.074c-1.82812.0407-3.61868-.0519-3.97904-.20571zm-7.1136-11.7264c-.76784-.53782-.90702-1.41806-.37995-2.4029.31731-.59291.77936-.61896 10.976-.61896 7.85258 0 10.74547.10073 11.02874.384.6365.6365.45632 2.08906-.3272 2.63786-.60663.4249-2.17241.49814-10.6488.49814-8.47639 0-10.04217-.0732-10.6488-.49814zm0-7.68c-.45564-.31914-.71121-.83008-.71121-1.42186 0-1.85754.36957-1.92 11.36-1.92s11.36.0625 11.36 1.92c0 1.85754-.36957 1.92-11.36 1.92-8.47639 0-10.04217-.0732-10.6488-.49814zM80.83424 114.77c-.42915-3.84172-2.08302-7.78399-6.6618-15.87948-3.1545-5.57728-5.50937-10.65607-6.48499-13.98622-1.0138-3.46053-1.37094-8.75903-.8253-12.24416.81064-5.17763 3.70372-10.51977 7.68349-14.18773 2.71317-2.5006 5.00961-3.89855 8.65134-5.26644 3.7822-1.42065 6.67609-1.82485 11.69801-1.63391 3.36437.12791 4.68022.32593 6.88 1.03536 5.08396 1.63957 8.32912 3.66943 11.78865 7.37386 4.21306 4.5113 6.45135 10.35857 6.45135 16.8534 0 7.17021-1.25915 10.70982-8.36926 23.52684-3.97231 7.16068-6.00012 12.44073-6.02518 15.68848l-.006.72H81.05767zm8.94075-14.27652c-.528-.32216-1.67066-.98943-2.53924-1.48282-2.12683-1.20813-5.63936-4.776-6.54625-6.64938-.40528-.83719-.81328-2.13171-.90667-2.87672l-.1698-1.35456.96408 1.30628c1.63972 2.22176 4.44728 4.19099 5.07715 3.56111.09321-.0932-.28705-1.49908-.84503-3.12417-.90236-2.62807-1.00043-3.25917-.88725-5.70896.09995-2.16317.3542-3.32714 1.18473-5.42366.58161-1.46817 1.169-2.54817 1.30531-2.4.1363.14817.55199 1.7094.92373 3.4694.64666 3.06159 1.8188 5.5049 2.79525 5.82668.21114.06958.51703-.70133.75177-1.89468.36497-1.85547 3.4794-9.28718 4.18965-9.99743.19828-.19829.22177.25898.06564 1.27836-.13369.87289-.24307 3.67507-.24307 6.22707 0 4.34532.05326 4.75178.83865 6.4.95417 2.00243 2.7326 3.9036 2.96609 3.17081.079-.24795.23242-1.20837.34093-2.13428.10851-.9259.49222-2.63832.85268-3.80536l.65539-2.1219 1.11897 2.68536c3.16285 7.59035 3.1517 8.67587-.14014 13.63373-.62127.93571-1.03897 1.7919-.92821 1.90266.11075.11076.88858-.05383 1.72851-.36575 4.05836-1.50714 7.13728-4.15216 8.63085-7.41456 1.57093-3.43134 1.53851-8.70088-.0752-12.2257-.82018-1.79152-2.8561-4.02934-3.37438-3.70903-.16178.09998-.29414.8862-.29414 1.74716 0 .86094-.16689 2.32845-.37087 3.26111l-.37086 1.69575-.58929-1.33258c-.3241-.73291-.75762-2.82091-.96336-4.64-.20574-1.81908-.42499-3.37074-.48722-3.44813-.0622-.07739-.82651.56193-1.6984 1.42071-.87189.85878-1.6691 1.47757-1.77158 1.37509-.10248-.10248.0442-1.0298.32588-2.06071 1.2341-4.51605.8854-10.23958-.83107-13.6412-.88751-1.75882-3.15059-4.40182-4.37966-5.11491l-.96818-.56174.0523 3.60174L95.215 63.17l-1.35265 2.8154c-.74396 1.54849-1.56118 3.11314-1.81606 3.47704-.44709.6383-.47534.61802-.802-.57542-1.3692-5.00255-1.73594-5.97622-2.63793-7.00353-1.44995-1.6514-1.87136-1.48053-1.87136.75876 0 2.5004-.39751 3.55159-2.55926 6.76775-2.36314 3.5158-3.12263 5.03421-3.55602 7.10943-.19419.92981-.4634 1.80908-.59825 1.95393-.13485.14485-.42378-.68315-.64206-1.84-.26052-1.38072-.54827-2.10336-.83753-2.10336-.73468 0-2.64384 2.9129-3.3254 5.0737-2.05613 6.51868.94535 14.51517 7.01967 18.70171 1.93286 1.33216 5.65985 2.76134 7.21885 2.76818l1.28.0056-.96-.58574z"/></svg>