<svg id="Layer_1" data-name="Layer 1" xmlns="http://www.w3.org/2000/svg" viewBox="0 0 312 93"><defs><style>.cls-1{fill:#fff;}</style></defs><path class="cls-1" d="M40.10069,84.11414a37.1007,37.1007,0,1,1,37.10043-37.101v.00027A37.14278,37.14278,0,0,1,40.10069,84.11414Zm0-72.5416A35.4409,35.4409,0,1,0,75.54132,47.01371v-.00027A35.48118,35.48118,0,0,0,40.10069,11.57254Z"/><path class="cls-1" d="M33.32528,37.92623c.6398-.26239,1.27831-.528,1.91967-.78648,1.22876-.49528,2.457-.99209,3.69006-1.47636a2.24171,2.24171,0,0,1,1.26784-.20054.91107.91107,0,0,1,.81429.69135c.08383.426-.2214.61683-.54714.79764a43.15407,43.15407,0,0,0-4.09384,2.78058,2.14044,2.14044,0,0,0-.23963.28985c1.52511-.67847,2.91575-1.31412,4.32147-1.91442a12.08524,12.08524,0,0,1,1.83607-.6329,1.052,1.052,0,0,1,1.3129.53487c.2617.57025-.052.99787-.50988,1.30929-1.3677.93022-2.8535,1.65734-4.2919,2.466a1.50467,1.50467,0,0,0-.61938.53194c.696-.26084,1.3866-.53728,2.08956-.77768.58723-.20083,1.18268-.3858,1.78623-.528a.93136.93136,0,0,1,1.1274.42263.97443.97443,0,0,1-.29681,1.24086,3.183,3.183,0,0,1-.82477.49722c-3.70837,1.77546-7.44772,3.48935-11.026,5.52371-1.40321.79777-1.50745,1.25817-.636,2.64381a19.53742,19.53742,0,0,0,1.91024,2.42007,4.18431,4.18431,0,0,1,1.02886,1.90693,1.74817,1.74817,0,0,1-.36706,1.60122c-.31453.34864-.74477.46752-1.01767-.00548-1.07655-1.86594-2.937-2.827-4.57139-4.05321a11.63954,11.63954,0,0,0-7.49606-2.14035,20.756,20.756,0,0,1-6.467-1.01033,3.18365,3.18365,0,0,1-1.95575-1.58759,15.05765,15.05765,0,0,1-1.74125-4.6934c-.21179-1.23764.09107-1.70066,1.29481-1.98469a27.16332,27.16332,0,0,1,5.62142-.76295,22.74679,22.74679,0,0,0,9.63782-2.519c2.93717-1.44041,5.97418-2.67316,8.88281-4.17718a1.31215,1.31215,0,0,1,1.38507-.00084c.69664.43333.68213.98927-.01847,1.41351-1.09979.66594-2.19318,1.34246-3.28927,2.01451Z"/><path class="cls-1" d="M48.27668,56.00528c-1.79169.73025-3.57932,1.47075-5.37771,2.18411a3.589,3.589,0,0,1-1.56067.39437.9757.9757,0,0,1-.99872-.68051c-.13859-.48653.253-.643.585-.838a22.79874,22.79874,0,0,0,3.96519-2.91243c-.95007.42593-1.89714.85872-2.85118,1.27555-.718.3137-1.44048.61851-2.17019.90368a3.40621,3.40621,0,0,1-.93452.24369,1.06409,1.06409,0,0,1-1.21716-.59661,1.00376,1.00376,0,0,1,.509-1.24426c1.29827-.8862,2.70462-1.587,4.07524-2.34882.42336-.23529.85127-.46237,1.35788-.737-.3996-.11332-.63119.09886-.87831.19337A24.41671,24.41671,0,0,1,39.569,52.95964c-.566.13024-1.19993.24663-1.43372-.48176a1.14124,1.14124,0,0,1,.75525-1.42633l.00817-.00248c2.5303-1.22859,5.07114-2.43594,7.58928-3.68894,1.40323-.69824,2.78324-1.44647,4.14766-2.21824.97345-.55062,1.08962-1.08521.53634-2.07691a19.80959,19.80959,0,0,0-2.265-2.96119,3.33642,3.33642,0,0,1-.91869-2.27784,1.46467,1.46467,0,0,1,.48033-1.16268c.30939-.25379.69678-.33164.90464.06968a9.15367,9.15367,0,0,0,3.16488,3.08381c1.7608,1.2457,3.49368,2.58687,5.7276,2.91483a22.17746,22.17746,0,0,0,3.23665.21067A21.89522,21.89522,0,0,1,67.8858,43.958a3.20942,3.20942,0,0,1,2.01195,1.63561,13.50522,13.50522,0,0,1,1.73376,4.85594c.1308,1.20967-.08049,1.48359-1.25011,1.77288a22.97544,22.97544,0,0,1-5.37343.745c-3.99072.01891-7.55229,1.37315-11.06019,3.07059-2.55445,1.23607-5.17414,2.33748-7.702,3.63152a1.4198,1.4198,0,0,1-1.243.13.97329.97329,0,0,1-.69517-.82092c-.03465-.41533.274-.54626.551-.71534q1.74473-1.065,3.48607-2.1355Z"/><path class="cls-1" d="M92.43164,54.48341V39.54347h3.60059V54.48341Z"/><path class="cls-1" d="M100.62305,54.48341V39.54347h2.8457l5.9873,8.87647h.14258V39.54347h3.34864V54.48341h-2.82422l-6.00879-8.96387h-.1416v8.96387Z"/><path class="cls-1" d="M120.61328,47.87257a6.00854,6.00854,0,0,0,.334,2.13428,2.75271,2.75271,0,0,0,.97461,1.32422,2.60912,2.60912,0,0,0,1.5371.44873,2.66866,2.66866,0,0,0,1.36329-.3335,2.33858,2.33858,0,0,0,.8916-.91406,3.09955,3.09955,0,0,0,.36133-1.32422H129.501v.42676a4.81212,4.81212,0,0,1-.82618,2.687,5.2836,5.2836,0,0,1-2.15039,1.79493,7.15678,7.15678,0,0,1-3.08691.64014,6.93966,6.93966,0,0,1-3.541-.84277,5.44364,5.44364,0,0,1-2.20019-2.38575,8.311,8.311,0,0,1-.749-3.667V46.19777a8.31967,8.31967,0,0,1,.75489-3.68311,5.47159,5.47159,0,0,1,2.20508-2.39111,6.91573,6.91573,0,0,1,3.53027-.84277,7.51175,7.51175,0,0,1,2.39648.36621,5.69684,5.69684,0,0,1,1.90528,1.05664,4.95931,4.95931,0,0,1,1.76172,3.78662v.416H126.0752a3.25812,3.25812,0,0,0-.36622-1.36816,2.42942,2.42942,0,0,0-.89257-.94678,2.57522,2.57522,0,0,0-1.35743-.34472,2.522,2.522,0,0,0-1.53221.46533,2.909,2.909,0,0,0-.97365,1.34082,5.95235,5.95235,0,0,0-.33984,2.145Z"/><path class="cls-1" d="M143.044,54.48341h-9.59864V39.54347H137.046V51.48439h5.998Z"/><path class="cls-1" d="M154.27832,51.03566a2.84312,2.84312,0,0,0,.74414-2.13428V39.54347h3.59082V49.3174a5.29926,5.29926,0,0,1-.7666,2.86767,5.07989,5.07989,0,0,1-2.167,1.89893,8.55043,8.55043,0,0,1-6.64941,0,5.03507,5.03507,0,0,1-2.167-1.89893,5.32172,5.32172,0,0,1-.76074-2.86766V39.54347h3.58984v9.35791a2.84584,2.84584,0,0,0,.73926,2.145,2.93881,2.93881,0,0,0,3.84668-.01074Z"/><path class="cls-1" d="M165.666,50.21486a1.69354,1.69354,0,0,0,.24609.68945,1.964,1.964,0,0,0,.55274.57471,2.8247,2.8247,0,0,0,.832.38867,3.86178,3.86178,0,0,0,1.09373.14209,3.654,3.654,0,0,0,1.38477-.22412,1.73717,1.73717,0,0,0,.80469-.61328,1.53831,1.53831,0,0,0,.26269-.88086,1.20978,1.20978,0,0,0-.55859-1.07276,4.83663,4.83663,0,0,0-1.65235-.60205l-2.1123-.45947a6.68784,6.68784,0,0,1-2.085-.76611,3.809,3.809,0,0,1-1.39062-1.38477,4.11626,4.11626,0,0,1-.498-2.09619,4.18683,4.18683,0,0,1,.73926-2.479,4.72728,4.72728,0,0,1,2.04687-1.60889,7.62368,7.62368,0,0,1,3.03711-.56348,7.106,7.106,0,0,1,3.13575.61817,4.67308,4.67308,0,0,1,1.92089,1.62548,4.1964,4.1964,0,0,1,.7002,2.167h-3.32715a1.79348,1.79348,0,0,0-.35547-.83155,2.09984,2.09984,0,0,0-.80957-.624,3.02543,3.02543,0,0,0-1.27539-.24072,2.53692,2.53692,0,0,0-1.6582.47607,1.49306,1.49306,0,0,0-.5752,1.19824,1.14023,1.14023,0,0,0,.53125.97413,3.87028,3.87028,0,0,0,1.47266.55859l2.167.44873a7.29171,7.29171,0,0,1,2.07422.71143,3.85539,3.85539,0,0,1,1.47168,1.35693,4.11183,4.11183,0,0,1,.54687,2.23291,4.5403,4.5403,0,0,1-.70019,2.51172,4.62042,4.62042,0,0,1-2.06348,1.70214,8.22176,8.22176,0,0,1-3.376.61279,8.67868,8.67868,0,0,1-2.7041-.37207,5.1644,5.1644,0,0,1-1.84961-1.01758,4.14978,4.14978,0,0,1-1.07227-1.46142,4.68728,4.68728,0,0,1-.38281-1.69092Z"/><path class="cls-1" d="M178.29,54.48341V39.54347h3.60059V54.48341Z"/><path class="cls-1" d="M185.05859,39.54347h4.18067l2.85742,11.14209h.16406l2.8125-11.14209h3.96192L194.3291,54.48341h-4.50976Z"/><path class="cls-1" d="M212.22852,54.48341H202.21387V39.54347h10.01465v2.85645h-6.457V45.6504h6.0635v2.627h-6.06348v3.34912h6.457Z"/><path class="cls-1" d="M222.85449,54.48341V39.54347h1.9043l7.38867,11.49219h.09863V39.54347h1.98047V54.48341h-1.90429L224.91211,42.98h-.07617V54.48341Z"/><path class="cls-1" d="M237.97461,54.48341l5.28613-14.93994h2.09082L250.627,54.48341h-2.123l-1.4668-4.42187h-5.50586l-1.4668,4.42187Zm6.27148-12.63086-2.18945,6.6001h4.46582l-2.20019-6.6001Z"/><path class="cls-1" d="M254.42871,54.48341V39.54347h1.98145l4.87011,11.44824h.06543l4.86035-11.44825h1.96973V54.48341h-1.82812V43.626h-.10938l-4.11523,9.544h-1.6416l-4.126-9.544h-.09863V54.48341Z"/><path class="cls-1" d="M273.48926,54.48341V39.54347h2.01465V54.48341Z"/><path class="cls-1" d="M280.76074,54.48341V39.54347h1.9043l7.38867,11.49219h.09863V39.54347h1.98047V54.48341h-1.90429L282.81836,42.98h-.07617V54.48341Z"/><path class="cls-1" d="M306.28906,43.626a3.60619,3.60619,0,0,0-.459-1.08936,3.24467,3.24467,0,0,0-.75586-.8208,3.18005,3.18005,0,0,0-1.02832-.52,4.38231,4.38231,0,0,0-1.26953-.1748,3.52971,3.52971,0,0,0-2.91211,1.30762,5.648,5.648,0,0,0-1.05078,3.62841v2.03565A6.8914,6.8914,0,0,0,299.29,50.691a3.76119,3.76119,0,0,0,1.373,1.71826,3.847,3.847,0,0,0,2.17871.59668,4.31663,4.31663,0,0,0,1.99707-.416,2.79391,2.79391,0,0,0,1.2041-1.14356,3.38671,3.38671,0,0,0,.39941-1.6582V48.38673H302.666V46.66847h5.73535v3.07568a5.36454,5.36454,0,0,1-.36621,2.00293,4.55471,4.55471,0,0,1-1.07227,1.60352,4.86258,4.86258,0,0,1-1.73535,1.06152,6.86717,6.86717,0,0,1-2.375.37793,6.76511,6.76511,0,0,1-2.57227-.46A5.05562,5.05562,0,0,1,298.376,52.9946a5.81165,5.81165,0,0,1-1.17676-2.13427,9.46246,9.46246,0,0,1-.39942-2.86768V45.957a8.19555,8.19555,0,0,1,.72266-3.56787,5.35533,5.35533,0,0,1,2.07422-2.33154,6.08818,6.08818,0,0,1,3.22266-.8208,6.45,6.45,0,0,1,2.06933.31738,5.32144,5.32144,0,0,1,1.6582.89746,4.72387,4.72387,0,0,1,1.165,1.38477,5.1532,5.1532,0,0,1,.5918,1.78955Z"/></svg>