<svg width="312" height="93" viewBox="0 0 312 93" fill="none" xmlns="http://www.w3.org/2000/svg">
<path d="M40.1007 84.1141C32.7629 84.1142 25.5899 81.9383 19.4887 77.8617C13.3874 73.7851 8.63212 67.9908 5.824 61.2115C3.01589 54.4323 2.28111 46.9726 3.7126 39.7757C5.14408 32.5789 8.67753 25.9681 13.8661 20.7795C19.0547 15.5908 25.6654 12.0573 32.8622 10.6257C40.059 9.19408 47.5187 9.92874 54.298 12.7367C61.0773 15.5448 66.8717 20.3 70.9484 26.4011C75.0251 32.5023 77.2011 39.6753 77.2012 47.0131V47.0134C77.19 56.8497 73.2777 66.2799 66.3224 73.2352C59.3672 80.1905 49.937 84.1029 40.1007 84.1141ZM40.1007 11.5725C33.0912 11.5725 26.239 13.651 20.4108 17.5453C14.5825 21.4395 10.0399 26.9746 7.35745 33.4505C4.67497 39.9265 3.97306 47.0525 5.34051 53.9273C6.70795 60.8022 10.0833 67.1172 15.0398 72.0737C19.9962 77.0303 26.3112 80.4058 33.186 81.7733C40.0609 83.1408 47.1869 82.4391 53.6629 79.7567C60.1389 77.0743 65.674 72.5318 69.5684 66.7036C73.4627 60.8754 75.5413 54.0233 75.5414 47.0137V47.0134C75.5307 37.6172 71.7934 28.6089 65.1493 21.9648C58.5052 15.3207 49.4969 11.5833 40.1007 11.5725Z" fill="black"/>
<path d="M33.3253 37.9263C33.9651 37.6639 34.6036 37.3983 35.245 37.1398C36.4737 36.6445 37.702 36.1477 38.935 35.6634C39.3291 35.4744 39.7697 35.4047 40.2029 35.4629C40.3941 35.4777 40.5757 35.5526 40.722 35.6767C40.8682 35.8008 40.9715 35.968 41.0172 36.1542C41.101 36.5802 40.7958 36.7711 40.47 36.9519C39.0533 37.7997 37.6865 38.7281 36.3762 39.7325C36.288 39.8219 36.2078 39.9188 36.1365 40.0223C37.6617 39.3438 39.0523 38.7082 40.458 38.1079C41.0521 37.848 41.6661 37.6364 42.2941 37.475C42.5402 37.3845 42.8113 37.3891 43.0542 37.4881C43.297 37.587 43.4942 37.7731 43.607 38.0099C43.8687 38.5801 43.555 39.0077 43.0971 39.3191C41.7294 40.2494 40.2436 40.9765 38.8052 41.7851C38.5537 41.902 38.3393 42.0861 38.1858 42.3171C38.8818 42.0562 39.5724 41.7798 40.2754 41.5394C40.8626 41.3386 41.4581 41.1536 42.0616 41.0114C42.2692 40.937 42.4963 40.9387 42.7028 41.0161C42.9092 41.0934 43.0815 41.2416 43.189 41.434C43.297 41.642 43.3264 41.8819 43.2719 42.1098C43.2174 42.3377 43.0826 42.5383 42.8922 42.6749C42.6441 42.8815 42.366 43.0492 42.0674 43.1721C38.3591 44.9476 34.6197 46.6615 31.0414 48.6958C29.6382 49.4936 29.534 49.954 30.4054 51.3396C30.9774 52.1954 31.6162 53.0046 32.3157 53.7597C32.8201 54.294 33.175 54.9517 33.3445 55.6666C33.4192 55.9432 33.4248 56.2338 33.3608 56.5131C33.2968 56.7923 33.1652 57.0515 32.9775 57.2679C32.6629 57.6165 32.2327 57.7354 31.9598 57.2624C30.8833 55.3964 29.0228 54.4354 27.3884 53.2092C25.21 51.6553 22.5628 50.8994 19.8924 51.0688C17.6968 51.0762 15.514 50.7352 13.4254 50.0585C13.0085 49.9408 12.6201 49.7393 12.2838 49.4664C11.9475 49.1934 11.6705 48.8546 11.4696 48.4709C10.6314 47.0145 10.0428 45.4282 9.72836 43.7775C9.51657 42.5399 9.81943 42.0768 11.0232 41.7928C12.8652 41.343 14.7493 41.0873 16.6446 41.0299C20.0038 40.9126 23.2954 40.0523 26.2824 38.5109C29.2196 37.0704 32.2566 35.8377 35.1652 34.3337C35.373 34.2044 35.6129 34.1358 35.8576 34.1356C36.1024 34.1355 36.3423 34.2038 36.5503 34.3328C37.2469 34.7662 37.2324 35.3221 36.5318 35.7463C35.432 36.4123 34.3386 37.0888 33.2425 37.7609L33.3253 37.9263Z" fill="black"/>
<path d="M48.2767 56.0052C46.485 56.7355 44.6974 57.476 42.899 58.1893C42.4154 58.4373 41.8817 58.5721 41.3383 58.5837C41.1196 58.599 40.9021 58.5402 40.7209 58.4167C40.5398 58.2932 40.4054 58.1124 40.3396 57.9032C40.201 57.4167 40.5926 57.2602 40.9246 57.0652C42.3475 56.2403 43.677 55.2638 44.8898 54.1528C43.9397 54.5787 42.9927 55.0115 42.0386 55.4283C41.3206 55.742 40.5982 56.0468 39.8684 56.332C39.5701 56.4572 39.2554 56.5393 38.9339 56.5757C38.6933 56.6332 38.4402 56.6052 38.2181 56.4963C37.9959 56.3874 37.8187 56.2045 37.7168 55.9791C37.6327 55.7455 37.6382 55.489 37.7322 55.2592C37.8262 55.0294 38.0021 54.8425 38.2258 54.7348C39.524 53.8486 40.9304 53.1478 42.301 52.386C42.7244 52.1507 43.1523 51.9236 43.6589 51.649C43.2593 51.5357 43.0277 51.7479 42.7806 51.8424C41.7373 52.289 40.6642 52.6623 39.569 52.9596C39.003 53.0898 38.3691 53.2062 38.1353 52.4778C38.0463 52.1885 38.0759 51.8757 38.2176 51.6083C38.3592 51.3408 38.6013 51.1405 38.8906 51.0515L38.8987 51.049C41.429 49.8204 43.9699 48.6131 46.488 47.3601C47.8913 46.6618 49.2713 45.9136 50.6357 45.1419C51.6091 44.5912 51.7253 44.0566 51.172 43.0649C50.5118 42.0089 49.7534 41.0174 48.907 40.1037C48.3223 39.4889 47.9938 38.6744 47.9883 37.8259C47.977 37.6086 48.0142 37.3915 48.0973 37.1904C48.1804 36.9893 48.3073 36.8092 48.4687 36.6632C48.7781 36.4094 49.1654 36.3316 49.3733 36.7329C50.1606 38.0039 51.2472 39.0627 52.5382 39.8167C54.299 41.0624 56.0319 42.4036 58.2658 42.7315C59.3381 42.8807 60.4199 42.9511 61.5024 42.9422C63.6688 42.9631 65.82 43.3054 67.8858 43.958C68.3165 44.0756 68.7179 44.2819 69.0643 44.5635C69.4108 44.8452 69.6946 45.196 69.8978 45.5936C70.7822 47.0858 71.3709 48.7345 71.6316 50.4495C71.7624 51.6592 71.5511 51.9331 70.3814 52.2224C68.626 52.6821 66.8223 52.9321 65.008 52.9674C61.0173 52.9863 57.4557 54.3405 53.9478 56.038C51.3934 57.2741 48.7737 58.3755 46.2458 59.6695C46.0623 59.7846 45.8548 59.8561 45.6394 59.8786C45.424 59.9012 45.2062 59.8741 45.0028 59.7995C44.8191 59.7461 44.6552 59.6398 44.5315 59.4938C44.4079 59.3478 44.33 59.1686 44.3077 58.9786C44.273 58.5632 44.5817 58.4323 44.8587 58.2632C46.0218 57.5532 47.1838 56.8414 48.3447 56.1277L48.2767 56.0052Z" fill="black"/>
<path d="M92.4316 54.4834V39.5435H96.0322V54.4834H92.4316Z" fill="black"/>
<path d="M100.623 54.4834V39.5435H103.469L109.456 48.4199H109.599V39.5435H112.947V54.4834H110.123L104.114 45.5195H103.973V54.4834H100.623Z" fill="black"/>
<path d="M120.613 47.8726C120.595 48.5984 120.708 49.3215 120.947 50.0069C121.13 50.5373 121.47 50.9993 121.922 51.3311C122.375 51.6381 122.912 51.7951 123.459 51.7798C123.935 51.7923 124.406 51.6772 124.822 51.4463C125.199 51.2303 125.507 50.9138 125.714 50.5323C125.932 50.1234 126.055 49.6709 126.075 49.2081H129.501V49.6348C129.499 50.5928 129.212 51.5284 128.675 52.3218C128.133 53.1027 127.39 53.7228 126.524 54.1168C125.556 54.5569 124.501 54.7756 123.438 54.7569C122.203 54.796 120.981 54.5051 119.897 53.9141C118.938 53.3611 118.17 52.5288 117.696 51.5284C117.171 50.3789 116.915 49.1248 116.947 47.8614V46.1978C116.915 44.9286 117.173 43.6687 117.702 42.5147C118.178 41.5126 118.947 40.6787 119.907 40.1236C120.988 39.5334 122.207 39.2424 123.438 39.2808C124.251 39.2723 125.06 39.396 125.834 39.647C126.531 39.8734 127.178 40.2322 127.739 40.7037C128.291 41.1688 128.734 41.7485 129.038 42.4025C129.343 43.0565 129.5 43.769 129.501 44.4903V44.9063H126.075C126.055 44.4289 125.93 43.9618 125.709 43.5381C125.503 43.1473 125.194 42.8199 124.816 42.5914C124.404 42.3533 123.935 42.2339 123.459 42.2466C122.911 42.2312 122.373 42.3945 121.927 42.712C121.479 43.0551 121.141 43.5209 120.953 44.0528C120.709 44.7409 120.594 45.468 120.613 46.1978V47.8726Z" fill="black"/>
<path d="M143.044 54.4834H133.445V39.5435H137.046V51.4844H143.044V54.4834Z" fill="black"/>
<path d="M154.278 51.0356C154.542 50.7497 154.744 50.4127 154.872 50.0456C155 49.6785 155.051 49.2891 155.022 48.9014V39.5435H158.613V49.3174C158.636 50.3268 158.37 51.3217 157.847 52.1851C157.323 53.0139 156.57 53.6734 155.68 54.084C154.627 54.5281 153.497 54.7568 152.355 54.7568C151.213 54.7568 150.082 54.5281 149.03 54.084C148.138 53.6756 147.385 53.0156 146.863 52.1851C146.343 51.3206 146.079 50.3261 146.103 49.3174V39.5435H149.692V48.9014C149.662 49.2905 149.712 49.6817 149.839 50.0507C149.966 50.4197 150.168 50.7586 150.432 51.0464C150.967 51.5072 151.651 51.7598 152.357 51.7578C153.063 51.7558 153.745 51.4995 154.278 51.0356L154.278 51.0356Z" fill="black"/>
<path d="M165.666 50.2149C165.697 50.4599 165.781 50.6952 165.912 50.9043C166.055 51.1317 166.243 51.3273 166.465 51.479C166.719 51.6531 167 51.7844 167.297 51.8677C167.653 51.9671 168.021 52.015 168.391 52.0098C168.862 52.0252 169.333 51.9491 169.775 51.7857C170.099 51.6656 170.379 51.4521 170.58 51.1724C170.755 50.9124 170.847 50.6051 170.843 50.2915C170.852 50.0794 170.805 49.8686 170.707 49.6803C170.609 49.492 170.463 49.3328 170.284 49.2188C169.775 48.9188 169.215 48.7147 168.632 48.6167L166.52 48.1572C165.787 48.0199 165.082 47.7609 164.435 47.3911C163.858 47.0589 163.379 46.5815 163.044 46.0064C162.695 45.3642 162.523 44.6407 162.546 43.9102C162.524 43.0265 162.783 42.1588 163.285 41.4312C163.803 40.7139 164.513 40.1564 165.332 39.8223C166.295 39.4292 167.329 39.2374 168.369 39.2588C169.448 39.2241 170.52 39.4355 171.505 39.877C172.282 40.233 172.946 40.7952 173.426 41.5025C173.854 42.1464 174.097 42.8964 174.126 43.6695H170.799C170.753 43.3665 170.631 43.0802 170.443 42.8379C170.229 42.5664 169.951 42.3521 169.634 42.2139C169.231 42.0423 168.796 41.9602 168.358 41.9732C167.767 41.9333 167.18 42.1017 166.7 42.4493C166.518 42.591 166.372 42.773 166.272 42.9808C166.172 43.1887 166.122 43.4169 166.125 43.6475C166.123 43.8417 166.171 44.0331 166.264 44.2035C166.357 44.374 166.492 44.5179 166.656 44.6216C167.104 44.9068 167.605 45.0969 168.129 45.1802L170.296 45.6289C171.019 45.7602 171.719 46 172.37 46.3404C172.972 46.6552 173.479 47.1233 173.842 47.6973C174.233 48.3745 174.422 49.1491 174.389 49.9302C174.406 50.8179 174.162 51.6912 173.689 52.4419C173.184 53.2004 172.466 53.7926 171.625 54.1441C170.555 54.5835 169.405 54.7923 168.249 54.7569C167.334 54.7763 166.421 54.6507 165.545 54.3848C164.865 54.1766 164.235 53.8301 163.695 53.3672C163.235 52.965 162.868 52.466 162.623 51.9058C162.391 51.3709 162.262 50.7974 162.24 50.2149L165.666 50.2149Z" fill="black"/>
<path d="M178.29 54.4834V39.5435H181.891V54.4834H178.29Z" fill="black"/>
<path d="M185.059 39.5435H189.239L192.097 50.6855H192.261L195.073 39.5435H199.035L194.329 54.4834H189.819L185.059 39.5435Z" fill="black"/>
<path d="M212.229 54.4834H202.214V39.5435H212.229V42.3999H205.772V45.6504H211.835V48.2774H205.772V51.6265H212.229L212.229 54.4834Z" fill="black"/>
<path d="M222.854 54.4834V39.5435H224.759L232.147 51.0356H232.246V39.5435H234.227V54.4834H232.322L224.912 42.98H224.836V54.4834H222.854Z" fill="black"/>
<path d="M237.975 54.4834L243.261 39.5435H245.352L250.627 54.4834H248.504L247.037 50.0615H241.531L240.065 54.4834H237.975ZM244.246 41.8525L242.057 48.4526H246.522L244.322 41.8525H244.246Z" fill="black"/>
<path d="M254.429 54.4834V39.5435H256.41L261.28 50.9917H261.346L266.206 39.5435H268.176V54.4834H266.348V43.626H266.238L262.123 53.17H260.481L256.355 43.626H256.257V54.4834H254.429Z" fill="black"/>
<path d="M273.489 54.4834V39.5435H275.504V54.4834H273.489Z" fill="black"/>
<path d="M280.761 54.4834V39.5435H282.665L290.054 51.0356H290.152V39.5435H292.133V54.4834H290.229L282.818 42.98H282.742V54.4834H280.761Z" fill="black"/>
<path d="M306.289 43.626C306.197 43.2401 306.042 42.872 305.83 42.5366C305.627 42.2214 305.372 41.9437 305.074 41.7158C304.766 41.4813 304.417 41.3051 304.046 41.1958C303.634 41.0756 303.206 41.0168 302.776 41.021C302.222 40.9949 301.67 41.0996 301.164 41.3268C300.658 41.554 300.213 41.8972 299.864 42.3286C299.108 43.3816 298.737 44.6628 298.813 45.957V47.9927C298.79 48.9149 298.952 49.8325 299.29 50.691C299.566 51.3877 300.044 51.9861 300.663 52.4092C301.313 52.8217 302.072 53.0295 302.842 53.0059C303.531 53.0288 304.216 52.8861 304.839 52.5899C305.347 52.3396 305.767 51.9408 306.043 51.4463C306.315 50.9367 306.453 50.3659 306.442 49.7881V48.3867H302.666V46.6684H308.401V49.7441C308.408 50.429 308.284 51.1089 308.035 51.747C307.796 52.352 307.431 52.8987 306.963 53.3506C306.466 53.8228 305.874 54.1846 305.228 54.4121C304.464 54.6768 303.66 54.8047 302.853 54.79C301.973 54.8053 301.1 54.6491 300.28 54.33C299.55 54.0389 298.898 53.5817 298.376 52.9946C297.837 52.3743 297.436 51.6469 297.199 50.8603C296.92 49.9306 296.785 48.9633 296.8 47.9926V45.957C296.77 44.7285 297.017 43.5092 297.523 42.3891C297.967 41.4232 298.689 40.6116 299.597 40.0576C300.574 39.4902 301.69 39.206 302.819 39.2368C303.522 39.2292 304.221 39.3364 304.889 39.5541C305.49 39.7522 306.052 40.0561 306.547 40.4516C307.021 40.8338 307.416 41.304 307.712 41.8364C308.018 42.3914 308.218 42.9981 308.304 43.6259L306.289 43.626Z" fill="black"/>
</svg>
