<?xml version="1.0" encoding="UTF-8"?>
<!-- Generator: Adobe Illustrator 24.3.0, SVG Export Plug-In . SVG Version: 6.00 Build 0) -->
<svg xmlns="http://www.w3.org/2000/svg" xmlns:xlink="http://www.w3.org/1999/xlink" version="1.1" id="Layer_1" x="0px" y="0px" viewBox="0 0 994.4 447.3" style="enable-background:new 0 0 994.4 447.3;" xml:space="preserve"> <style type="text/css"> .st0{fill:#2EA9E1;} .st1{fill:#78CCCB;} .st2{fill:#A09F9F;} </style> <g> <path class="st0" d="M460.3,268.1c0.4,24.5-6,45.4-19.1,62.7c-8.6,11.8-20.7,20.1-36.4,24.8c-8.5,2.7-18.3,4-29.4,4 c-20.8,0-38-5.1-51.6-15.4c-11.3-8.5-20.3-19.9-26.9-34.4c-6.7-14.4-10.5-31.1-11.5-49.9l50.2-3.5c2.3,20.4,7.8,35.2,16.4,44.3 c6.3,6.9,13.5,10.2,21.7,9.8c11.5-0.4,20.8-6,27.7-16.9c3.6-5.5,5.4-13.3,5.4-23.3c0-14.8-6.6-29.3-19.8-43.7 c-10.5-9.9-26.2-24.7-47.2-44.5c-17.6-16.9-30-32.1-37.1-45.6c-7.8-15.1-11.7-31.6-11.7-49.3c0-31.9,10.7-56.1,32.1-72.6 C336.3,4.9,352.7,0,372.3,0c18.9,0,35,4.2,48.5,12.7c10.4,6.5,18.8,15.7,25.2,27.4c6.4,11.7,10.3,25.2,11.7,40.5L407,89.9 c-1.4-14.4-5.5-25.5-12.3-33.5c-4.9-5.9-11.9-8.9-21-8.9c-9.6,0-17,4.3-22.1,12.9c-4.1,6.9-6.2,15.5-6.2,25.8 c0,16,6.9,32.4,20.8,49.1c5.3,6.3,13.1,13.7,23.5,22.3c12.3,10.3,20.5,17.5,24.4,21.6c13,13.1,23,26,30.2,38.7 c3.3,5.9,6,11.4,8.1,16.6C457.4,246.9,460,258.1,460.3,268.1z"/> <path class="st0" d="M677.5,273.9c0,23.6-8.3,43.8-25,60.6c-16.7,16.8-36.7,25.2-60,25.2h-85.1V0.6h85.1c23.6,0,43.7,8.4,60.2,25.2 c16.5,16.8,24.8,37,24.8,60.4V273.9z M561.6,306.1h32.6c8.6,0,15.9-3.1,21.8-9.4c5.9-6.2,8.8-13.6,8.8-22V87c0-8.5-3-15.8-9-22 c-6-6.1-13.2-9.2-21.6-9.2h-32.6V306.1z"/> <path class="st1" d="M894,273.7c0,23.7-8.3,43.9-25,60.7c-16.7,16.8-36.7,25.2-60.1,25.2h-85.2V0h85.2c23.7,0,43.8,8.4,60.3,25.2 c16.6,16.8,24.8,37,24.8,60.5V273.7z M777.9,306.1h32.6c8.6,0,15.9-3.1,21.8-9.4c5.9-6.2,8.8-13.6,8.8-22V86.6c0-8.5-3-15.9-9-22 c-6-6.1-13.2-9.2-21.6-9.2h-32.6V306.1z"/> <path class="st1" d="M994.4,359.7h-54.1V0.6h54.1V359.7z"/> <path class="st1" d="M152.5,180.8c0,52-42.3,94.2-94.3,94.2H0v-20.4h58.2c40.7,0,73.9-33.1,73.9-73.8H152.5z"/> <path class="st1" d="M195.4,180.8c0,75.7-61.6,137.1-137.2,137.1H0v-20.4h58.2c64.4,0,116.8-52.4,116.8-116.7H195.4z"/> <path class="st1" d="M238.3,180.8c0,99.3-80.8,180.1-180.1,180.1H0v-20.4h58.2c88.1,0,159.7-71.6,159.7-159.6H238.3z"/> <path class="st0" d="M238.3,87v20.4h-58.2c-40.7,0-73.9,33.2-73.9,73.9H85.8c0-52,42.3-94.3,94.3-94.3H238.3z"/> <path class="st0" d="M238.3,44.2v20.4h-58.2c-64.4,0-116.8,52.4-116.8,116.7H42.9c0-75.7,61.6-137.1,137.2-137.1H238.3z"/> <path class="st0" d="M238.3,1.3v20.4h-58.2c-88.1,0-159.7,71.6-159.7,159.6H0C0,82,80.8,1.3,180.1,1.3H238.3z"/> <g> <path class="st2" d="M0.3,409.3c0-6.2,4.8-10.9,11-10.9h1.9c6.2,0,11,4.7,11,10.9v1.2l-6.8,0.6v-1.9c0-2.5-1.8-4.4-4.3-4.4h-1.7 c-2.5,0-4.3,1.9-4.3,4.4v0.3c0,7.6,17.3,2.2,17.3,16.2v0.5c0,6.2-4.8,10.9-11,10.9H11c-6.2,0-11-4.7-11-10.9V425l6.8-0.6v1.9 c0,2.5,1.8,4.4,4.3,4.4h2.2c2.5,0,4.3-1.9,4.3-4.4v-0.5c0-8-17.3-1.7-17.3-16.2V409.3z"/> <path class="st2" d="M51.8,427.2c0,5.7-4.1,9.9-9.8,9.9h-1.7c-5.7,0-9.8-4.2-9.8-9.9v-8.7c0-5.7,4.1-9.9,9.8-9.9H42 c5.7,0,9.8,4.2,9.8,9.9V427.2z M45.2,418.3c0-1.8-1.5-3.2-3.2-3.2h-1.7c-1.8,0-3.2,1.5-3.2,3.2v9.1c0,1.8,1.5,3.2,3.2,3.2H42 c1.8,0,3.2-1.5,3.2-3.2V418.3z"/> <path class="st2" d="M73.3,399v6.3h-3.6c-1.8,0-2.7,0.9-2.7,2.7v1.2h5.8v6.3H67v21.1h-6.6v-21.1h-4.8v-6.3h4.8v-1.4 c0-5.7,3.1-8.8,8.8-8.8H73.3z"/> <path class="st2" d="M88,436.6c-5.7,0-8.8-3.1-8.8-8.8v-12.3h-4.8v-6.3h4.8v-6.4l6.6-1.1v7.5h6.3v6.3h-6.3v12 c0,1.8,0.9,2.7,2.7,2.7h3.6v6.4H88z"/> <path class="st2" d="M119,409.2l4.5,20.3l0.1,1.4l0.1-1.4l4.4-20.3h6.7l-6.6,27.4h-8.4l-4.7-20.3l-0.1-1.4l-0.1,1.4l-4.7,20.3 h-8.4l-6.6-27.4h6.7l4.4,20.3l0.1,1.4l0.1-1.4l4.5-20.3H119z"/> <path class="st2" d="M154.8,433.6c-1.5,2.1-4.1,3.5-7.3,3.5h-0.1c-5.5,0-8.9-3.2-8.9-7.7v-1.1c0-4.5,3.4-7.6,8.9-7.6h5.7v-2.8 c0-1.6-1.5-2.8-3.2-2.8h-1.3c-1.8,0-3.2,1.3-3.2,2.8v1l-6.6-0.6v-0.2c0-5.4,4.1-9.5,9.8-9.5h1.3c5.7,0,9.8,4.1,9.8,9.5v18.4h-3.1 L154.8,433.6z M145.2,428.4c0,1.5,1.2,2.6,2.8,2.6h2.5c1.5,0,2.6-1.1,2.7-2.5v-2.8H148c-1.6,0-2.8,1.1-2.8,2.6V428.4z"/> <path class="st2" d="M172,412.3c1.7-2.2,4.1-3.6,6.9-3.6h3.2v6.7h-5.3c-1.8,0-3.2,1.3-3.2,3.2v18.1H167v-27.4h3.1L172,412.3z"/> <path class="st2" d="M201.1,426.5l6.6,0.6v0.1c0,5.7-4.1,9.9-9.8,9.9h-1.7c-5.7,0-9.8-4.2-9.8-9.9v-8.7c0-5.7,4.1-9.9,9.8-9.9h1.7 c5.7,0,9.8,4.2,9.8,9.9v5.6H193v3.3c0,1.8,1.5,3.2,3.2,3.2h1.7c1.8,0,3.2-1.5,3.2-3.2V426.5z M193,420h8.1v-1.7 c0-1.8-1.5-3.2-3.2-3.2h-1.7c-1.8,0-3.2,1.5-3.2,3.2V420z"/> <path class="st2" d="M227.6,399h13.6c6.2,0,11,4.7,11,10.9v15.9c0,6.2-4.8,10.9-11,10.9h-13.6V399z M241.2,430.1 c2.5,0,4.3-1.9,4.3-4.4v-15.9c0-2.5-1.8-4.4-4.3-4.4h-6.8v24.7H241.2z"/> <path class="st2" d="M273.9,426.5l6.6,0.6v0.1c0,5.7-4.1,9.9-9.8,9.9h-1.7c-5.7,0-9.8-4.2-9.8-9.9v-8.7c0-5.7,4.1-9.9,9.8-9.9h1.7 c5.7,0,9.8,4.2,9.8,9.9v5.6h-14.7v3.3c0,1.8,1.5,3.2,3.2,3.2h1.7c1.8,0,3.2-1.5,3.2-3.2V426.5z M265.8,420h8.1v-1.7 c0-1.8-1.5-3.2-3.2-3.2h-1.7c-1.8,0-3.2,1.5-3.2,3.2V420z"/> <path class="st2" d="M292.5,436.6l-8.2-27.4h6.9l5.5,20.5l0.1,1.4l0.1-1.4l5.5-20.5h6.9l-8.2,27.4H292.5z"/> <path class="st2" d="M327.8,426.5l6.6,0.6v0.1c0,5.7-4.1,9.9-9.8,9.9h-1.7c-5.7,0-9.8-4.2-9.8-9.9v-8.7c0-5.7,4.1-9.9,9.8-9.9h1.7 c5.7,0,9.8,4.2,9.8,9.9v5.6h-14.7v3.3c0,1.8,1.5,3.2,3.2,3.2h1.7c1.8,0,3.2-1.5,3.2-3.2V426.5z M319.7,420h8.1v-1.7 c0-1.8-1.5-3.2-3.2-3.2h-1.7c-1.8,0-3.2,1.5-3.2,3.2V420z"/> <path class="st2" d="M341.4,436.6V399h6.6v37.6H341.4z"/> <path class="st2" d="M375.8,427.2c0,5.7-4.1,9.9-9.8,9.9h-1.7c-5.7,0-9.8-4.2-9.8-9.9v-8.7c0-5.7,4.1-9.9,9.8-9.9h1.7 c5.7,0,9.8,4.2,9.8,9.9V427.2z M369.2,418.3c0-1.8-1.5-3.2-3.2-3.2h-1.7c-1.8,0-3.2,1.5-3.2,3.2v9.1c0,1.8,1.5,3.2,3.2,3.2h1.7 c1.8,0,3.2-1.5,3.2-3.2V418.3z"/> <path class="st2" d="M387.8,412.3c1.7-2.2,4.1-3.6,6.9-3.6h0.1c5.9,0,9.3,3.6,9.3,9.8v8.8c0,6.2-3.4,9.8-9.3,9.8h-0.1 c-2,0-3.9-0.7-5.3-1.9v12.1h-6.6v-38.2h3.1L387.8,412.3z M389.4,427.5c0,1.8,1.3,3.2,3.2,3.2h1.8c1.8,0,3.2-1.3,3.2-3.2v-9.2 c0-1.8-1.3-3.2-3.2-3.2h-1.8c-1.8,0-3.2,1.3-3.2,3.2V427.5z"/> <path class="st2" d="M425.3,426.5l6.6,0.6v0.1c0,5.7-4.1,9.9-9.8,9.9h-1.7c-5.7,0-9.8-4.2-9.8-9.9v-8.7c0-5.7,4.1-9.9,9.8-9.9h1.7 c5.7,0,9.8,4.2,9.8,9.9v5.6h-14.7v3.3c0,1.8,1.5,3.2,3.2,3.2h1.7c1.8,0,3.2-1.5,3.2-3.2V426.5z M417.2,420h8.1v-1.7 c0-1.8-1.5-3.2-3.2-3.2h-1.7c-1.8,0-3.2,1.5-3.2,3.2V420z"/> <path class="st2" d="M443.9,412.3c1.7-2.2,4.1-3.6,6.9-3.6h3.2v6.7h-5.3c-1.8,0-3.2,1.3-3.2,3.2v18.1h-6.6v-27.4h3.1L443.9,412.3z "/> <path class="st2" d="M471.7,399h13.6c6.2,0,11,4.7,11,10.9v15.9c0,6.2-4.8,10.9-11,10.9h-13.6V399z M485.2,430.1 c2.5,0,4.3-1.9,4.3-4.4v-15.9c0-2.5-1.8-4.4-4.3-4.4h-6.8v24.7H485.2z"/> <path class="st2" d="M502.8,399h6.6v5.5h-6.6V399z M502.8,436.6v-27.4h6.6v27.4H502.8z"/> <path class="st2" d="M521.8,436.6l-8.2-27.4h6.9l5.5,20.5l0.1,1.4l0.1-1.4l5.5-20.5h6.9l-8.2,27.4H521.8z"/> <path class="st2" d="M557.2,426.5l6.6,0.6v0.1c0,5.7-4.1,9.9-9.8,9.9h-1.7c-5.7,0-9.8-4.2-9.8-9.9v-8.7c0-5.7,4.1-9.9,9.8-9.9h1.7 c5.7,0,9.8,4.2,9.8,9.9v5.6h-14.7v3.3c0,1.8,1.5,3.2,3.2,3.2h1.7c1.8,0,3.2-1.5,3.2-3.2V426.5z M549.1,420h8.1v-1.7 c0-1.8-1.5-3.2-3.2-3.2h-1.7c-1.8,0-3.2,1.5-3.2,3.2V420z"/> <path class="st2" d="M575.8,412.3c1.7-2.2,4.1-3.6,6.9-3.6h3.2v6.7h-5.3c-1.8,0-3.2,1.3-3.2,3.2v18.1h-6.6v-27.4h3.1L575.8,412.3z "/> <path class="st2" d="M611.4,428.9c0,4.7-4,8.2-9.7,8.2H600c-5.7,0-9.9-4-9.9-9.4v-0.2l6.6-0.5v1c0,1.7,1.2,2.8,3,2.8h2.5 c1.5,0,2.6-1,2.6-2.1c0-4.9-14.3-0.7-14.3-11.9c0-4.7,4-8.2,9.7-8.2h1c5.7,0,9.9,3.9,9.9,9.2v0.2l-6.6,0.6v-1c0-1.6-1.2-2.8-3-2.8 h-1.8c-1.6,0-2.7,1-2.7,2.3C597,421.8,611.4,417.7,611.4,428.9z"/> <path class="st2" d="M618.1,399h6.6v5.5h-6.6V399z M618.1,436.6v-27.4h6.6v27.4H618.1z"/> <path class="st2" d="M643.1,436.6c-5.7,0-8.8-3.1-8.8-8.8v-12.3h-4.8v-6.3h4.8v-6.4l6.6-1.1v7.5h6.3v6.3H641v12 c0,1.8,0.9,2.7,2.7,2.7h3.6v6.4H643.1z"/> <path class="st2" d="M659.8,434.7l-9.3-25.5h7.1l5.5,16.5l0.1,1.4l0.1-1.4l5.6-16.5h7.1l-14,38.2h-7.1L659.8,434.7z"/> <path class="st2" d="M707.9,433.6c-1.5,2.1-4.1,3.5-7.3,3.5h-0.1c-5.5,0-8.9-3.2-8.9-7.7v-1.1c0-4.5,3.4-7.6,8.9-7.6h5.7v-2.8 c0-1.6-1.5-2.8-3.2-2.8h-1.3c-1.8,0-3.2,1.3-3.2,2.8v1l-6.6-0.6v-0.2c0-5.4,4.1-9.5,9.8-9.5h1.3c5.7,0,9.8,4.1,9.8,9.5v18.4h-3.1 L707.9,433.6z M698.2,428.4c0,1.5,1.2,2.6,2.8,2.6h2.5c1.5,0,2.6-1.1,2.7-2.5v-2.8H701c-1.6,0-2.8,1.1-2.8,2.6V428.4z"/> <path class="st2" d="M725.1,412.3c1.7-2.2,4.1-3.6,6.9-3.6h0.1c5.9,0,9.3,3.6,9.3,9.8v18.1h-6.6v-18.3c0-1.8-1.3-3.2-3.2-3.2h-1.8 c-1.8,0-3.2,1.3-3.2,3.2v18.3h-6.6v-27.4h3.1L725.1,412.3z"/> <path class="st2" d="M764.4,433.5c-1.6,2.3-4,3.6-6.9,3.6h-0.1c-5.9,0-9.3-3.6-9.3-9.8v-5.5v-3.3c0-6.2,3.4-9.8,9.3-9.8h0.1 c2,0,3.8,0.7,5.3,1.9V399h6.6v37.6h-3.1L764.4,433.5z M759.7,415.1h-1.8c-1.8,0-3.2,1.3-3.2,3.2v9.2c0,1.8,1.3,3.2,3.2,3.2h1.8 c1.8,0,3.2-1.3,3.2-3.2v-9.2C762.8,416.4,761.5,415.1,759.7,415.1z"/> <path class="st2" d="M789.8,436.6V399h6.8v37.6H789.8z"/> <path class="st2" d="M809.7,412.3c1.7-2.2,4.1-3.6,6.9-3.6h0.1c5.9,0,9.3,3.6,9.3,9.8v18.1h-6.6v-18.3c0-1.8-1.3-3.2-3.2-3.2h-1.8 c-1.8,0-3.2,1.3-3.2,3.2v18.3h-6.6v-27.4h3.1L809.7,412.3z"/> <path class="st2" d="M847.4,426.2l6.6,0.6v0.4c0,5.7-4.1,9.9-9.8,9.9h-1.7c-5.7,0-9.8-4.2-9.8-9.9v-8.7c0-5.7,4.1-9.9,9.8-9.9h1.7 c5.7,0,9.8,4.2,9.8,9.9v0.4l-6.6,0.6v-1.3c0-1.8-1.5-3.2-3.2-3.2h-1.7c-1.8,0-3.2,1.5-3.2,3.2v9.1c0,1.8,1.5,3.2,3.2,3.2h1.7 c1.8,0,3.2-1.5,3.2-3.2V426.2z"/> <path class="st2" d="M860.5,436.6V399h6.6v37.6H860.5z"/> <path class="st2" d="M890.6,433.5c-1.6,2.3-4,3.6-6.9,3.6h-0.1c-5.9,0-9.3-3.6-9.3-9.8v-18.1h6.6v18.3c0,1.8,1.3,3.2,3.2,3.2h1.8 c1.8,0,3.2-1.3,3.2-3.2v-18.3h6.6v27.4h-3.1L890.6,433.5z"/> <path class="st2" d="M923.9,428.9c0,4.7-4,8.2-9.7,8.2h-1.6c-5.7,0-9.9-4-9.9-9.4v-0.2l6.6-0.5v1c0,1.7,1.2,2.8,3,2.8h2.5 c1.5,0,2.6-1,2.6-2.1c0-4.9-14.3-0.7-14.3-11.9c0-4.7,4-8.2,9.7-8.2h1c5.7,0,9.9,3.9,9.9,9.2v0.2l-6.6,0.6v-1c0-1.6-1.2-2.8-3-2.8 h-1.8c-1.6,0-2.7,1-2.7,2.3C909.5,421.8,923.9,417.7,923.9,428.9z"/> <path class="st2" d="M930.6,399h6.6v5.5h-6.6V399z M930.6,436.6v-27.4h6.6v27.4H930.6z"/> <path class="st2" d="M965.5,427.2c0,5.7-4.1,9.9-9.8,9.9H954c-5.7,0-9.8-4.2-9.8-9.9v-8.7c0-5.7,4.1-9.9,9.8-9.9h1.7 c5.7,0,9.8,4.2,9.8,9.9V427.2z M958.9,418.3c0-1.8-1.5-3.2-3.2-3.2H954c-1.8,0-3.2,1.5-3.2,3.2v9.1c0,1.8,1.5,3.2,3.2,3.2h1.7 c1.8,0,3.2-1.5,3.2-3.2V418.3z"/> <path class="st2" d="M977.5,412.3c1.7-2.2,4.1-3.6,6.9-3.6h0.1c5.9,0,9.3,3.6,9.3,9.8v18.1h-6.6v-18.3c0-1.8-1.3-3.2-3.2-3.2h-1.8 c-1.8,0-3.2,1.3-3.2,3.2v18.3h-6.6v-27.4h3.1L977.5,412.3z"/> </g> </g> </svg>